<svg width="13" height="15" viewBox="0 0 13 15" fill="none" xmlns="http://www.w3.org/2000/svg">
<path d="M0 12.9546L0 2.04546C0 1.50297 0.215659 0.982855 0.599257 0.599257C0.982855 0.215659 1.50297 0 2.04546 0L8.18182 0L8.24905 0.00332724C8.40519 0.0187977 8.55198 0.0878387 8.66387 0.199752L12.073 3.60885C12.2009 3.73671 12.2727 3.91008 12.2727 4.09091L12.2727 12.9546C12.2727 13.4971 12.0571 14.0172 11.6735 14.4008C11.2899 14.7844 10.7698 15 10.2273 15L2.04546 15C1.50297 15 0.982855 14.7844 0.599257 14.4008C0.215659 14.0172 0 13.497 0 12.9546ZM1.36364 12.9546C1.36364 13.1354 1.43552 13.3088 1.56339 13.4366C1.69126 13.5645 1.86462 13.6364 2.04546 13.6364L10.2273 13.6364C10.4081 13.6364 10.5815 13.5645 10.7093 13.4366C10.8372 13.3088 10.9091 13.1354 10.9091 12.9546L10.9091 4.37323L7.89948 1.36364L2.04546 1.36364C1.86462 1.36364 1.69126 1.43552 1.56339 1.56339C1.43552 1.69126 1.36364 1.86462 1.36364 2.04546L1.36364 12.9546Z" fill="#565D6D"/>
</svg>
