<svg width="20" height="20" viewBox="0 0 20 20" fill="none" xmlns="http://www.w3.org/2000/svg">
<path d="M10.1016 0.873803C10.3035 0.890295 10.4982 0.956247 10.669 1.06509L10.7525 1.12265L10.8311 1.18748C10.982 1.32264 11.0972 1.49278 11.1675 1.68273L11.1991 1.77918L11.2039 1.79539L12.5162 6.88806H12.5154C12.5525 7.03156 12.6279 7.1626 12.7326 7.2674C12.8374 7.37216 12.9685 7.44676 13.112 7.48381L18.2038 8.79613L18.2176 8.80011C18.4474 8.86352 18.6532 8.99118 18.8118 9.1673L18.8774 9.2459L18.9358 9.3294C19.0633 9.52893 19.1319 9.7615 19.1319 9.99971C19.1319 10.2722 19.0424 10.5376 18.8774 10.7543C18.733 10.944 18.5374 11.0878 18.3148 11.1693L18.2176 11.2001C18.2131 11.2014 18.2084 11.2022 18.2038 11.2034L13.112 12.5157C12.9684 12.5527 12.8375 12.6281 12.7326 12.7329C12.6279 12.8376 12.5525 12.9681 12.5154 13.1115L12.5162 13.1122L11.2032 18.2041L11.1983 18.2203C11.1251 18.482 10.9681 18.7126 10.7516 18.8769C10.5352 19.0411 10.2712 19.1305 9.99949 19.1305C9.72783 19.1305 9.46373 19.041 9.24726 18.8769C9.05794 18.7332 8.91352 18.5392 8.83143 18.3176L8.80064 18.2203C8.79915 18.2149 8.79724 18.2096 8.79583 18.2041L7.48353 13.1122C7.44649 12.9687 7.3719 12.8377 7.26711 12.7329C7.18837 12.6542 7.09483 12.5921 6.99234 12.5505L6.88778 12.5157L1.79592 11.2026L1.77647 11.1977C1.51585 11.1238 1.28651 10.9664 1.12317 10.7503C0.980239 10.5612 0.894284 10.3359 0.875144 10.1011L0.871094 9.99971L0.875144 9.89845C0.89435 9.66364 0.980322 9.43822 1.12317 9.24922L1.18721 9.17137C1.3441 8.99549 1.54839 8.86734 1.77647 8.8026L1.79512 8.79687L6.88778 7.483L6.99234 7.44815C7.09476 7.40659 7.18841 7.34524 7.26711 7.26659C7.37176 7.16201 7.44634 7.03124 7.48353 6.88806L8.79666 1.79539L8.80147 1.77918C8.87468 1.51757 9.03163 1.28684 9.24809 1.12265L9.33076 1.06509C9.53021 0.937912 9.76236 0.869751 10.0002 0.869751L10.1016 0.873803ZM9.09081 7.30225C8.97951 7.73274 8.75532 8.12676 8.44075 8.44105C8.16551 8.71612 7.82971 8.92171 7.46165 9.0433L7.30197 9.09028L3.77771 9.99896L7.30197 10.9084L7.46165 10.9554C7.82995 11.0771 8.16542 11.2839 8.44075 11.5593C8.75524 11.8738 8.97967 12.2666 9.09081 12.6972L9.09164 12.698L9.99866 16.2215L10.9081 12.698V12.6972L10.9551 12.5376C11.0768 12.1695 11.2838 11.8345 11.559 11.5593C11.8736 11.2446 12.2669 11.0195 12.6977 10.9084L16.2228 9.99971L12.6977 9.09111C12.267 8.97997 11.8735 8.75562 11.559 8.44105C11.2836 8.16572 11.0768 7.8302 10.9551 7.46193L10.9081 7.30225L9.99949 3.77718L9.09081 7.30225Z" fill="#565D6D"/>
<path d="M15.8398 5.82993L15.8398 2.50993C15.8398 2.05154 16.2114 1.67993 16.6698 1.67993C17.1283 1.67993 17.4998 2.05154 17.4998 2.50993V5.82993C17.4998 6.28832 17.1283 6.65993 16.6698 6.65993C16.2114 6.65993 15.8398 6.28832 15.8398 5.82993Z" fill="#565D6D"/>
<path d="M18.3297 3.33997C18.7881 3.33997 19.1597 3.71157 19.1597 4.16997C19.1597 4.62836 18.7881 4.99997 18.3297 4.99997L15.0097 4.99997C14.5513 4.99997 14.1797 4.62836 14.1797 4.16997C14.1797 3.71157 14.5513 3.33997 15.0097 3.33997L18.3297 3.33997Z" fill="#565D6D"/>
<path d="M2.5 15.83L2.5 14.17C2.5 13.7116 2.87161 13.34 3.33 13.34C3.78839 13.34 4.16 13.7116 4.16 14.17L4.16 15.83C4.16 16.2884 3.78839 16.66 3.33 16.66C2.87161 16.66 2.5 16.2884 2.5 15.83Z" fill="#565D6D"/>
<path d="M4.15992 14.1699C4.61831 14.1699 4.98992 14.5415 4.98992 14.9999C4.98992 15.4583 4.61831 15.8299 4.15992 15.8299H2.49992C2.04153 15.8299 1.66992 15.4583 1.66992 14.9999C1.66992 14.5415 2.04153 14.1699 2.49992 14.1699H4.15992Z" fill="#565D6D"/>
</svg>
