<svg width="32" height="32" viewBox="0 0 32 32" fill="none" xmlns="http://www.w3.org/2000/svg">
<path d="M26.6402 6.68995C26.6402 5.95542 26.0448 5.35995 25.3102 5.35995L6.6902 5.35995C5.95566 5.35995 5.3602 5.95542 5.3602 6.68995L5.3602 25.31C5.3602 26.0445 5.95566 26.64 6.6902 26.64L25.3102 26.64C26.0448 26.64 26.6402 26.0445 26.6402 25.31L26.6402 6.68995ZM29.3002 25.31C29.3002 27.5136 27.5139 29.3 25.3102 29.3L6.6902 29.3C4.48658 29.3 2.7002 27.5136 2.7002 25.31L2.7002 6.68995C2.7002 4.48634 4.48658 2.69995 6.6902 2.69995L25.3102 2.69995C27.5139 2.69995 29.3002 4.48634 29.3002 6.68995L29.3002 25.31Z" fill="white"/>
</svg>
