<svg width="16" height="16" viewBox="0 0 16 16" fill="none" xmlns="http://www.w3.org/2000/svg">
<path d="M1.32031 12.6898L1.32031 3.3098C1.32031 2.77672 1.53223 2.26562 1.90918 1.88867C2.28613 1.51173 2.79723 1.2998 3.33031 1.2998L6.01031 1.2998C6.38034 1.2998 6.68031 1.59978 6.68031 1.9698C6.68031 2.33983 6.38034 2.6398 6.01031 2.6398L3.33031 2.6398C3.15262 2.6398 2.98225 2.71044 2.8566 2.83609C2.73095 2.96175 2.66031 3.13211 2.66031 3.3098L2.66031 12.6898C2.66031 12.8675 2.73095 13.0379 2.8566 13.1635C2.98225 13.2892 3.15262 13.3598 3.33031 13.3598H6.01031C6.38034 13.3598 6.68031 13.6598 6.68031 14.0298C6.68031 14.3998 6.38034 14.6998 6.01031 14.6998H3.33031C2.79723 14.6998 2.28613 14.4879 1.90918 14.1109C1.53223 13.734 1.32031 13.2229 1.32031 12.6898Z" fill="white"/>
<path d="M10.1816 4.17611C10.4269 3.93081 10.8148 3.91568 11.078 4.13031L11.129 4.17611L14.479 7.52613C14.7406 7.78776 14.7406 8.21187 14.479 8.47351L11.129 11.8235C10.8674 12.0852 10.4433 12.0852 10.1816 11.8235C9.91993 11.5619 9.91993 11.1378 10.1816 10.8761L13.0579 7.99982L10.1816 5.12353L10.1358 5.0725C9.92113 4.80934 9.93627 4.42141 10.1816 4.17611Z" fill="white"/>
<path d="M14.0205 7.32959C14.3906 7.32959 14.6905 7.62955 14.6905 7.99959C14.6905 8.36963 14.3906 8.66959 14.0205 8.66959L5.98055 8.66959C5.61052 8.66959 5.31055 8.36963 5.31055 7.99959C5.31055 7.62955 5.61052 7.32959 5.98055 7.32959L14.0205 7.32959Z" fill="white"/>
</svg>
