<svg width="20" height="20" viewBox="0 0 20 20" fill="none" xmlns="http://www.w3.org/2000/svg">
<path d="M1.7002 15.81L1.7002 4.18995C1.7002 3.52956 1.96272 2.89641 2.42969 2.42945C2.89666 1.96248 3.52981 1.69995 4.1902 1.69995L12.6677 1.69995C13.3215 1.70926 13.9448 1.97636 14.4039 2.4416L14.4047 2.44079L17.5593 5.59544H17.5585C18.0241 6.05463 18.2909 6.67842 18.3002 7.33244L18.3002 15.81C18.3002 16.4704 18.0377 17.1035 17.5707 17.5705C17.1038 18.0374 16.4706 18.3 15.8102 18.3L4.1902 18.3C3.52981 18.3 2.89666 18.0374 2.42969 17.5705C1.96272 17.1035 1.7002 16.4703 1.7002 15.81ZM3.3602 15.81C3.3602 16.0301 3.4477 16.2411 3.60336 16.3968C3.75902 16.5525 3.97006 16.64 4.1902 16.64L15.8102 16.64C16.0303 16.64 16.2414 16.5525 16.397 16.3968C16.5527 16.2411 16.6402 16.0301 16.6402 15.81L16.6402 7.35595L16.6353 7.27408C16.614 7.08542 16.5281 6.90884 16.3914 6.77479L16.3849 6.76911L13.2253 3.60879C13.0913 3.47201 12.9147 3.3862 12.7261 3.36481L12.6442 3.35995L4.1902 3.35995C3.97006 3.35995 3.75902 3.44746 3.60336 3.60312C3.4477 3.75877 3.3602 3.96982 3.3602 4.18995L3.3602 15.81Z" fill="#0A4D79"/>
<path d="M13.32 17.49L13.32 11.68L6.68002 11.68L6.68002 17.49C6.68002 17.9484 6.30841 18.32 5.85002 18.32C5.39163 18.32 5.02002 17.9484 5.02002 17.49L5.02002 11.68C5.02002 11.2398 5.19504 10.8176 5.50635 10.5063C5.81766 10.1951 6.23976 10.02 6.68002 10.02L13.32 10.02C13.7603 10.02 14.1824 10.1951 14.4937 10.5063C14.805 10.8176 14.98 11.2398 14.98 11.68L14.98 17.49C14.98 17.9484 14.6084 18.32 14.15 18.32C13.6916 18.32 13.32 17.9484 13.32 17.49Z" fill="#0A4D79"/>
<path d="M5.02002 5.82505L5.02002 2.50505C5.02002 2.04666 5.39163 1.67505 5.85002 1.67505C6.30841 1.67505 6.68002 2.04666 6.68002 2.50505L6.68002 5.82505L12.49 5.82505C12.9484 5.82505 13.32 6.19666 13.32 6.65505C13.32 7.11344 12.9484 7.48505 12.49 7.48505L6.68002 7.48505C6.23976 7.48505 5.81766 7.31003 5.50635 6.99872C5.19504 6.68741 5.02002 6.26531 5.02002 5.82505Z" fill="#0A4D79"/>
</svg>
