<svg width="327" height="151" viewBox="0 0 327 151" fill="none" xmlns="http://www.w3.org/2000/svg">
<path d="M0.5 9.173C2.718 64.57 4.935 119.967 7.153 119.967C9.371 119.967 11.588 20.762 13.806 20.762C16.024 20.762 18.241 103.736 20.459 103.736C22.677 103.736 24.895 79.33 27.112 70.526C29.33 61.722 31.548 62.501 33.765 50.912C35.983 39.322 38.201 0.991 40.418 0.991C42.636 0.991 44.854 118.094 47.071 118.094C49.289 118.094 51.507 113.452 53.724 111.431C55.942 109.41 58.16 109.59 60.378 105.968C62.595 102.346 64.813 99.221 67.031 89.699C69.248 80.178 71.466 58.714 73.684 48.84C75.901 38.967 78.119 30.457 80.337 30.457C82.554 30.457 84.772 44.675 86.99 44.675C89.207 44.675 91.425 5.7 93.643 5.7C95.861 5.7 98.078 113.377 100.296 113.377C102.514 113.377 104.731 17.356 106.949 17.356C109.167 17.356 111.384 29.917 113.602 31.337C115.82 32.756 118.037 33.465 120.255 33.465C122.473 33.465 124.69 10.012 126.908 10.012C129.126 10.012 131.344 50.706 133.561 50.706C135.779 50.706 137.997 43.229 140.214 36.815C142.432 30.4 144.65 12.221 146.867 12.221C149.085 12.221 151.303 65.443 153.52 65.443C155.738 65.443 157.956 12.877 160.173 10.136C162.391 7.396 164.609 6.026 166.827 6.026C169.044 6.026 171.262 122.082 173.48 122.082C175.697 122.082 177.915 121.047 180.133 118.978C182.35 116.908 184.568 46.992 186.786 32.878C189.003 18.764 191.221 11.707 193.439 11.707C195.656 11.707 197.874 103.064 200.092 103.064C202.31 103.064 204.527 19.721 206.745 19.721C208.963 19.721 211.18 22.742 213.398 28.783C215.616 34.825 217.833 54.37 220.051 69.603C222.269 84.836 224.486 120.179 226.704 120.179C228.922 120.179 231.139 3.075 233.357 3.075C235.575 3.075 237.793 6.481 240.01 13.291C242.228 20.102 244.446 107.752 246.663 107.752C248.881 107.752 251.099 33.265 253.316 33.265C255.534 33.265 257.752 123.026 259.969 123.026C262.187 123.026 264.405 114.371 266.622 97.062C268.84 79.753 271.058 0.5 273.276 0.5C275.493 0.5 277.711 118.408 279.929 118.408C282.146 118.408 284.364 101.477 286.582 94.464C288.799 87.45 291.017 82.779 293.235 76.327C295.452 69.876 297.67 55.755 299.888 55.755C302.105 55.755 304.323 88.691 306.541 88.691C308.759 88.691 310.976 79.953 313.194 79.953C315.412 79.953 317.629 110.532 319.847 110.532C322.065 110.532 324.282 64.832 326.5 19.132V150.5C324.282 150.5 322.065 150.5 319.847 150.5C317.629 150.5 315.412 150.5 313.194 150.5C310.976 150.5 308.759 150.5 306.541 150.5C304.323 150.5 302.105 150.5 299.888 150.5C297.67 150.5 295.452 150.5 293.235 150.5C291.017 150.5 288.799 150.5 286.582 150.5C284.364 150.5 282.146 150.5 279.929 150.5C277.711 150.5 275.493 150.5 273.276 150.5C271.058 150.5 268.84 150.5 266.622 150.5C264.405 150.5 262.187 150.5 259.969 150.5C257.752 150.5 255.534 150.5 253.316 150.5C251.099 150.5 248.881 150.5 246.663 150.5C244.446 150.5 242.228 150.5 240.01 150.5C237.793 150.5 235.575 150.5 233.357 150.5C231.139 150.5 228.922 150.5 226.704 150.5C224.486 150.5 222.269 150.5 220.051 150.5C217.833 150.5 215.616 150.5 213.398 150.5C211.18 150.5 208.963 150.5 206.745 150.5C204.527 150.5 202.31 150.5 200.092 150.5C197.874 150.5 195.656 150.5 193.439 150.5C191.221 150.5 189.003 150.5 186.786 150.5C184.568 150.5 182.35 150.5 180.133 150.5C177.915 150.5 175.697 150.5 173.48 150.5C171.262 150.5 169.044 150.5 166.827 150.5C164.609 150.5 162.391 150.5 160.173 150.5C157.956 150.5 155.738 150.5 153.52 150.5C151.303 150.5 149.085 150.5 146.867 150.5C144.65 150.5 142.432 150.5 140.214 150.5C137.997 150.5 135.779 150.5 133.561 150.5C131.344 150.5 129.126 150.5 126.908 150.5C124.69 150.5 122.473 150.5 120.255 150.5C118.037 150.5 115.82 150.5 113.602 150.5C111.384 150.5 109.167 150.5 106.949 150.5C104.731 150.5 102.514 150.5 100.296 150.5C98.078 150.5 95.861 150.5 93.643 150.5C91.425 150.5 89.207 150.5 86.99 150.5C84.772 150.5 82.554 150.5 80.337 150.5C78.119 150.5 75.901 150.5 73.684 150.5C71.466 150.5 69.248 150.5 67.031 150.5C64.813 150.5 62.595 150.5 60.378 150.5C58.16 150.5 55.942 150.5 53.724 150.5C51.507 150.5 49.289 150.5 47.071 150.5C44.854 150.5 42.636 150.5 40.418 150.5C38.201 150.5 35.983 150.5 33.765 150.5C31.548 150.5 29.33 150.5 27.112 150.5C24.895 150.5 22.677 150.5 20.459 150.5C18.241 150.5 16.024 150.5 13.806 150.5C11.588 150.5 9.371 150.5 7.153 150.5C4.935 150.5 2.718 150.5 0.5 150.5V9.173Z" fill="#8ACAF5" fill-opacity="0.6"/>
<path d="M0.5 9.173C2.718 64.57 4.935 119.967 7.153 119.967C9.371 119.967 11.588 20.762 13.806 20.762C16.024 20.762 18.241 103.736 20.459 103.736C22.677 103.736 24.895 79.33 27.112 70.526C29.33 61.722 31.548 62.501 33.765 50.912C35.983 39.322 38.201 0.991 40.418 0.991C42.636 0.991 44.854 118.094 47.071 118.094C49.289 118.094 51.507 113.452 53.724 111.431C55.942 109.41 58.16 109.59 60.378 105.968C62.595 102.346 64.813 99.221 67.031 89.699C69.248 80.178 71.466 58.714 73.684 48.84C75.901 38.967 78.119 30.457 80.337 30.457C82.554 30.457 84.772 44.675 86.99 44.675C89.207 44.675 91.425 5.7 93.643 5.7C95.861 5.7 98.078 113.377 100.296 113.377C102.514 113.377 104.731 17.356 106.949 17.356C109.167 17.356 111.384 29.917 113.602 31.337C115.82 32.756 118.037 33.465 120.255 33.465C122.473 33.465 124.69 10.012 126.908 10.012C129.126 10.012 131.344 50.706 133.561 50.706C135.779 50.706 137.997 43.229 140.214 36.815C142.432 30.4 144.65 12.221 146.867 12.221C149.085 12.221 151.303 65.443 153.52 65.443C155.738 65.443 157.956 12.877 160.173 10.136C162.391 7.396 164.609 6.026 166.827 6.026C169.044 6.026 171.262 122.082 173.48 122.082C175.697 122.082 177.915 121.047 180.133 118.978C182.35 116.908 184.568 46.992 186.786 32.878C189.003 18.764 191.221 11.707 193.439 11.707C195.656 11.707 197.874 103.064 200.092 103.064C202.31 103.064 204.527 19.721 206.745 19.721C208.963 19.721 211.18 22.742 213.398 28.783C215.616 34.825 217.833 54.37 220.051 69.603C222.269 84.836 224.486 120.179 226.704 120.179C228.922 120.179 231.139 3.075 233.357 3.075C235.575 3.075 237.793 6.481 240.01 13.291C242.228 20.102 244.446 107.752 246.663 107.752C248.881 107.752 251.099 33.265 253.316 33.265C255.534 33.265 257.752 123.026 259.969 123.026C262.187 123.026 264.405 114.371 266.622 97.062C268.84 79.753 271.058 0.5 273.276 0.5C275.493 0.5 277.711 118.408 279.929 118.408C282.146 118.408 284.364 101.477 286.582 94.464C288.799 87.45 291.017 82.779 293.235 76.327C295.452 69.876 297.67 55.755 299.888 55.755C302.105 55.755 304.323 88.691 306.541 88.691C308.759 88.691 310.976 79.953 313.194 79.953C315.412 79.953 317.629 110.532 319.847 110.532C322.065 110.532 324.282 64.832 326.5 19.132" stroke="#8ACAF5" stroke-linecap="round"/>
</svg>
