<svg width="4" height="12" viewBox="0 0 4 12" fill="none" xmlns="http://www.w3.org/2000/svg">
<path d="M1.49779 0.598461C1.72286 0.119963 2.27826 -0.119855 2.78784 0.059411C3.29738 0.238666 3.58032 0.773323 3.45631 1.28731L3.42574 1.39019C3.2293 1.94876 3.12941 2.53664 3.13023 3.12859V3.13068C3.13023 6.14376 2.66281 9.18502 2.13874 10.9504L2.03277 11.2867C1.85041 11.8333 1.25977 12.1283 0.71316 11.946C0.16664 11.7637 -0.128335 11.173 0.0538633 10.6264L0.143538 10.3391C0.59381 8.81428 1.04332 5.98651 1.04332 3.13068C1.04227 2.30197 1.18204 1.47899 1.45703 0.697307L1.49779 0.598461Z" fill="#19191F"/>
</svg>
