<svg width="66" height="12" viewBox="0 0 66 12" fill="none" xmlns="http://www.w3.org/2000/svg">
<path opacity="0.35" d="M43.1362 4.00771C43.1362 2.07098 44.7062 0.500964 46.6429 0.500964H59.9451C61.8819 0.500964 63.4519 2.07098 63.4519 4.00771V7.07741C63.4519 9.01414 61.8819 10.5842 59.9451 10.5842H46.6429C44.7062 10.5842 43.1362 9.01414 43.1362 7.07741V4.00771Z" stroke="#171A1F" stroke-linecap="round"/>
<path opacity="0.4" d="M64.8053 4.26345V7.86217C65.5294 7.55738 66.0002 6.84832 66.0002 6.06281C66.0002 5.2773 65.5294 4.56824 64.8053 4.26345Z" fill="#171A1F"/>
<path d="M44.3407 3.70928C44.3407 2.60255 45.2379 1.70543 46.3445 1.70543H60.2437C61.3503 1.70543 62.2475 2.60255 62.2475 3.70928V7.37594C62.2475 8.48257 61.3503 9.37979 60.2437 9.37979H46.3445C45.2379 9.37979 44.3407 8.48257 44.3407 7.37594V3.70928Z" fill="#171A1F"/>
<path fill-rule="evenodd" clip-rule="evenodd" d="M29.4189 3.05911C31.5222 3.05921 33.545 3.8841 35.0693 5.36334C35.1841 5.47756 35.3676 5.47606 35.4806 5.36014L36.5778 4.22976C36.6351 4.17095 36.667 4.09129 36.6665 4.00833C36.6661 3.92547 36.6332 3.84612 36.5753 3.78801C32.5745 -0.125718 26.2628 -0.125718 22.262 3.78801C22.2039 3.84612 22.1711 3.92538 22.1706 4.00823C22.17 4.09119 22.2018 4.17095 22.2591 4.22976L23.3567 5.36014C23.4696 5.47626 23.6532 5.47776 23.768 5.36334C25.2924 3.88399 27.3155 3.05911 29.4189 3.05911ZM29.4492 6.47147C30.6047 6.47137 31.7191 6.90982 32.5757 7.70164C32.6915 7.81396 32.8741 7.81155 32.987 7.69613L34.083 6.56576C34.1407 6.50654 34.1727 6.42609 34.1719 6.34252C34.1711 6.25886 34.1374 6.17911 34.0785 6.1211C31.4701 3.64433 27.4305 3.64433 24.822 6.1211C24.7631 6.17911 24.7294 6.25896 24.7287 6.34252C24.7279 6.42619 24.7601 6.50654 24.8179 6.56576L25.9135 7.69613C26.0265 7.81155 26.2089 7.81396 26.3249 7.70164C27.1808 6.91042 28.2944 6.47197 29.4492 6.47147ZM31.6778 8.67772C31.6795 8.76158 31.6472 8.84233 31.5886 8.90105L29.6928 10.8539C29.6372 10.9113 29.5615 10.9437 29.4824 10.9437C29.4034 10.9437 29.3275 10.9113 29.272 10.8539L27.3759 8.90105C27.3173 8.84233 27.2851 8.76148 27.2868 8.67762C27.2885 8.59386 27.3241 8.5145 27.3851 8.45829C28.5958 7.41298 30.3691 7.41298 31.5798 8.45829C31.6407 8.5145 31.6762 8.59385 31.6778 8.67772Z" fill="#171A1F"/>
<path d="M8.52714 3.41078C8.52714 2.93988 8.90898 2.55814 9.37989 2.55814H10.2326C10.7035 2.55814 11.0853 2.93988 11.0853 3.41078V10.2324C11.0853 10.7034 10.7035 11.0851 10.2326 11.0851H9.37989C8.90898 11.0851 8.52714 10.7034 8.52714 10.2324V3.41078Z" fill="#171A1F"/>
<path d="M12.7907 1.70533C12.7907 1.23443 13.1725 0.852592 13.6434 0.852592H14.4961C14.967 0.852592 15.3487 1.23443 15.3487 1.70533V10.2323C15.3487 10.7033 14.967 11.0851 14.4961 11.0851H13.6434C13.1725 11.0851 12.7907 10.7033 12.7907 10.2323V1.70533Z" fill="#171A1F"/>
<path d="M4.26357 6.39516C4.26357 5.92426 4.64541 5.54252 5.11631 5.54252H5.96895C6.43996 5.54252 6.82169 5.92426 6.82169 6.39516V10.2323C6.82169 10.7033 6.43996 11.0851 5.96895 11.0851H5.11631C4.64541 11.0851 4.26357 10.7033 4.26357 10.2323V6.39516Z" fill="#171A1F"/>
<path d="M0 8.52705C0 8.05614 0.381734 7.67431 0.85274 7.67431H1.70538C2.17639 7.67431 2.55812 8.05614 2.55812 8.52705V10.2324C2.55812 10.7034 2.17639 11.0852 1.70538 11.0852H0.85274C0.381734 11.0852 0 10.7034 0 10.2324V8.52705Z" fill="#171A1F"/>
</svg>
