<svg width="16" height="16" viewBox="0 0 16 16" fill="none" xmlns="http://www.w3.org/2000/svg">
<path d="M1.2998 12.6701L1.2998 9.99007C1.2998 9.62003 1.59978 9.32007 1.9698 9.32007C2.33983 9.32007 2.6398 9.62003 2.6398 9.99007L2.6398 12.6701L2.64307 12.7361C2.65828 12.8896 2.72612 13.0338 2.83609 13.1438C2.96175 13.2695 3.13211 13.3401 3.3098 13.3401L12.6898 13.3401C12.8675 13.3401 13.0379 13.2695 13.1635 13.1438C13.2892 13.0181 13.3598 12.8478 13.3598 12.6701L13.3598 9.99007C13.3598 9.62003 13.6598 9.32007 14.0298 9.32007C14.3998 9.32007 14.6998 9.62003 14.6998 9.99007L14.6998 12.6701C14.6998 13.2032 14.4879 13.7143 14.1109 14.0912C13.734 14.4681 13.2229 14.6801 12.6898 14.6801L3.3098 14.6801C2.77672 14.6801 2.26562 14.4681 1.88867 14.0912C1.5589 13.7614 1.35535 13.329 1.30962 12.869L1.2998 12.6701Z" fill="#171A1F"/>
<path d="M10.9266 6.13544C11.1898 5.9208 11.5777 5.93594 11.823 6.18124C12.0683 6.42653 12.0835 6.81447 11.8689 7.07765L11.823 7.12863L8.47303 10.4786C8.21139 10.7403 7.78728 10.7403 7.52565 10.4786L4.17563 7.12863L4.12982 7.07765C3.91519 6.81447 3.93032 6.42653 4.17563 6.18124C4.42093 5.93594 4.80886 5.9208 5.07201 6.13544L5.12305 6.18124L7.99934 9.0575L10.8756 6.18124L10.9266 6.13544Z" fill="#171A1F"/>
<path d="M7.33008 10.0201L7.33008 1.98006C7.33008 1.61003 7.63004 1.31006 8.00008 1.31006C8.37012 1.31006 8.67008 1.61003 8.67008 1.98006L8.67008 10.0201C8.67008 10.3901 8.37012 10.6901 8.00008 10.6901C7.63004 10.6901 7.33008 10.3901 7.33008 10.0201Z" fill="#171A1F"/>
</svg>
