<svg width="43" height="43" viewBox="0 0 43 43" fill="none" xmlns="http://www.w3.org/2000/svg">
<path d="M18.1542 0.261858C22.7089 -0.455677 27.3648 0.311855 31.439 2.4359L32.2444 2.87872L32.4125 2.98561C33.2166 3.5645 33.4676 4.67036 32.9621 5.54712C32.4563 6.4238 31.3731 6.76067 30.4693 6.3545L30.2919 6.26289L29.6314 5.90214C26.2984 4.16452 22.4894 3.5363 18.7633 4.12321C14.7888 4.74938 11.1484 6.71951 8.45038 9.70431C5.75243 12.6892 4.15892 16.5094 3.93626 20.5267C3.71368 24.5442 4.87515 28.5177 7.2269 31.7824C9.57861 35.047 12.9793 37.4073 16.8602 38.4686C20.7411 39.5299 24.8692 39.229 28.5549 37.6155C32.2409 36.002 35.2626 33.1725 37.1155 29.6007C38.8525 26.2524 39.4639 22.4405 38.8715 18.7287L38.736 17.9881L38.7075 17.7897C38.609 16.8043 39.27 15.8847 40.2611 15.6824C41.2531 15.4803 42.2227 16.0685 42.5173 17.0147L42.5669 17.2075L42.7311 18.1122C43.455 22.6495 42.707 27.3081 40.5836 31.4007C38.3189 35.7659 34.627 39.2243 30.122 41.1962C25.6174 43.1681 20.5728 43.5354 15.8295 42.2383C11.086 40.9411 6.92894 38.0574 4.05461 34.0672C1.18031 30.0769 -0.239059 25.2212 0.0329274 20.3111C0.304998 15.4008 2.25347 10.732 5.55105 7.08363C8.8486 3.4355 13.2967 1.02719 18.1542 0.261858Z" fill="#57914B"/>
</svg>
