<svg width="16" height="16" viewBox="0 0 16 16" fill="none" xmlns="http://www.w3.org/2000/svg">
<path d="M14.0299 8.00001C14.0299 4.66973 11.3302 1.97 7.99988 1.97C4.66961 1.97 1.96988 4.66973 1.96988 8.00001C1.96988 11.3303 4.66961 14.03 7.99988 14.03C11.3302 14.03 14.0299 11.3303 14.0299 8.00001ZM15.3699 8.00001C15.3699 12.0703 12.0702 15.37 7.99988 15.37C3.92955 15.37 0.629883 12.0703 0.629883 8.00001C0.629883 3.92967 3.92955 0.630005 7.99988 0.630005C12.0702 0.630005 15.3699 3.92967 15.3699 8.00001Z" fill="#171A1F"/>
<path d="M7.32031 3.98995C7.32031 3.61992 7.62027 3.31995 7.99031 3.31995C8.36035 3.31995 8.66031 3.61992 8.66031 3.98995L8.66031 7.59575L10.97 8.75063L11.0295 8.7846C11.3164 8.96644 11.4248 9.33936 11.2696 9.64964C11.1145 9.95991 10.751 10.0972 10.4335 9.97673L10.3706 9.94926L7.69062 8.60926C7.46369 8.49576 7.32031 8.26374 7.32031 8.00995L7.32031 3.98995Z" fill="#171A1F"/>
</svg>
