<svg width="16" height="16" viewBox="0 0 16 16" fill="none" xmlns="http://www.w3.org/2000/svg">
<path d="M7.9998 1.2998C9.32493 1.2998 10.6203 1.69291 11.7221 2.42912C12.8239 3.16531 13.683 4.2114 14.1901 5.43561C14.6972 6.65987 14.8294 8.00744 14.5709 9.30711C14.3123 10.6067 13.6745 11.8006 12.7376 12.7376C11.8006 13.6745 10.6067 14.3123 9.30711 14.5709C8.00744 14.8294 6.65987 14.6972 5.43561 14.1901C4.2114 13.683 3.16531 12.8239 2.42912 11.7221C1.69291 10.6203 1.2998 9.32493 1.2998 7.9998C1.2998 7.62976 1.59978 7.3298 1.9698 7.3298C2.33983 7.3298 2.6398 7.62976 2.6398 7.9998C2.6398 9.05995 2.95442 10.096 3.54339 10.9775C4.13232 11.8589 4.96923 12.5458 5.94859 12.9515C6.92794 13.3572 8.0057 13.4639 9.04534 13.2571C10.0851 13.0503 11.0405 12.5397 11.7901 11.7901C12.5397 11.0405 13.0503 10.0851 13.2571 9.04534C13.4639 8.0057 13.3572 6.92794 12.9515 5.94859C12.5458 4.96923 11.8589 4.13232 10.9775 3.54339C10.0964 2.95466 9.06075 2.64007 8.00114 2.6398C6.4887 2.64581 5.03712 3.2361 3.94971 4.28732L2.44351 5.79352C2.18187 6.05517 1.75774 6.05517 1.49609 5.79352C1.23444 5.53187 1.23444 5.10774 1.49609 4.84609L3.01013 3.33205L3.27382 3.08865C4.57773 1.94436 6.25462 1.30638 7.99719 1.2998H7.9998Z" fill="#171A1F"/>
<path d="M1.3252 1.99471C1.3252 1.62468 1.62517 1.32471 1.9952 1.32471C2.36522 1.32471 2.6652 1.62468 2.6652 1.99471L2.6652 4.67471L5.3452 4.67471C5.71522 4.67471 6.0152 4.97468 6.0152 5.34471C6.0152 5.71473 5.71522 6.01471 5.3452 6.01471L1.9952 6.01471C1.62517 6.01471 1.3252 5.71473 1.3252 5.34471L1.3252 1.99471Z" fill="#171A1F"/>
</svg>
