<svg width="20" height="20" viewBox="0 0 20 20" fill="none" xmlns="http://www.w3.org/2000/svg">
<path d="M14.9799 17.4899V15.8299C14.9799 15.1696 14.7173 14.5364 14.2504 14.0694C13.8418 13.6609 13.3062 13.4087 12.7363 13.3521L12.4899 13.3399H7.50986C6.84947 13.3399 6.21632 13.6025 5.74936 14.0694C5.28239 14.5364 5.01986 15.1696 5.01986 15.8299L5.01986 17.4899C5.01986 17.9483 4.64826 18.3199 4.18986 18.3199C3.73147 18.3199 3.35986 17.9483 3.35986 17.4899L3.35986 15.8299C3.35986 14.7293 3.79741 13.674 4.57568 12.8957C5.35396 12.1175 6.40922 11.6799 7.50986 11.6799H12.4899L12.6957 11.6848C13.7214 11.7357 14.6944 12.1661 15.4241 12.8957C16.2023 13.674 16.6399 14.7293 16.6399 15.8299V17.4899C16.6399 17.9483 16.2683 18.3199 15.8099 18.3199C15.3515 18.3199 14.9799 17.9483 14.9799 17.4899Z" fill="#565D6D"/>
<path d="M12.4901 5.82993C12.4901 4.45475 11.3753 3.33993 10.0001 3.33993C8.62487 3.33993 7.5101 4.45475 7.5101 5.82993C7.5101 7.20512 8.62487 8.31993 10.0001 8.31993C11.3753 8.31993 12.4901 7.20512 12.4901 5.82993ZM14.1501 5.82993C14.1501 8.12191 12.2921 9.97993 10.0001 9.97993C7.70812 9.97993 5.8501 8.12191 5.8501 5.82993C5.8501 3.53795 7.70812 1.67993 10.0001 1.67993C12.2921 1.67993 14.1501 3.53795 14.1501 5.82993Z" fill="#565D6D"/>
</svg>
