<svg width="24" height="24" viewBox="0 0 24 24" fill="none" xmlns="http://www.w3.org/2000/svg">
<path d="M15 21V19C15 18.2044 14.6837 17.4415 14.1211 16.8789C13.6289 16.3867 12.9835 16.0829 12.2969 16.0146L12 16L6 16C5.20435 16 4.44152 16.3163 3.87891 16.8789C3.3163 17.4415 3 18.2044 3 19L3 21C3 21.5523 2.55228 22 2 22C1.44772 22 1 21.5523 1 21L1 19C1 17.6739 1.52716 16.4025 2.46484 15.4648C3.40253 14.5272 4.67392 14 6 14L12 14L12.248 14.0059C13.4838 14.0672 14.6561 14.5858 15.5352 15.4648C16.4728 16.4025 17 17.6739 17 19V21C17 21.5523 16.5523 22 16 22C15.4477 22 15 21.5523 15 21Z" fill="#2563EB"/>
<path d="M17.9962 6.99984C17.9962 6.33535 17.7758 5.68946 17.3692 5.16391C17.0133 4.70391 16.5322 4.35861 15.9864 4.16781L15.7491 4.09555L15.6515 4.06527C15.1762 3.88917 14.9024 3.37801 15.0323 2.8768C15.1623 2.37572 15.6496 2.06265 16.1505 2.13949L16.2511 2.16L16.4503 2.21566C17.4407 2.51665 18.3147 3.11892 18.9503 3.94027C19.6281 4.81625 19.9962 5.89224 19.9962 6.99984C19.9962 8.10745 19.6281 9.18343 18.9503 10.0595C18.2724 10.9354 17.3233 11.5618 16.2511 11.8397C15.7165 11.9783 15.171 11.6574 15.0323 11.1229C14.8937 10.5884 15.2146 10.0428 15.7491 9.90414C16.3924 9.73736 16.9625 9.36138 17.3692 8.83578C17.7759 8.31022 17.9962 7.66435 17.9962 6.99984Z" fill="#2563EB"/>
<path d="M20.9998 21.0001V19.0011L20.9891 18.7531C20.9409 18.1769 20.7273 17.6249 20.3709 17.1652C20.0145 16.7054 19.5332 16.3604 18.9871 16.1701L18.7498 16.0978L18.6521 16.0675C18.1767 15.8919 17.9026 15.3813 18.032 14.88C18.1615 14.3789 18.6483 14.0645 19.1492 14.1408L19.2498 14.1622L19.449 14.2179C20.4399 14.518 21.3156 15.1186 21.9519 15.9396C22.6306 16.8151 22.9989 17.8914 22.9998 18.9992V21.0001C22.9997 21.5524 22.552 22.0001 21.9998 22.0001C21.4476 22.0001 20.9999 21.5524 20.9998 21.0001Z" fill="#2563EB"/>
<path d="M12 7C12 5.34315 10.6569 4 9 4C7.34315 4 6 5.34315 6 7C6 8.65685 7.34315 10 9 10C10.6569 10 12 8.65685 12 7ZM14 7C14 9.76142 11.7614 12 9 12C6.23858 12 4 9.76142 4 7C4 4.23858 6.23858 2 9 2C11.7614 2 14 4.23858 14 7Z" fill="#2563EB"/>
</svg>
