<svg width="40" height="40" viewBox="0 0 40 40" fill="none" xmlns="http://www.w3.org/2000/svg">
<path d="M3.2998 31.6701L3.2998 24.9901C3.2998 24.0677 4.0475 23.3201 4.9698 23.3201C5.89211 23.3201 6.6398 24.0677 6.6398 24.9901L6.6398 31.6701L6.64795 31.8347C6.68585 32.2172 6.85495 32.5767 7.12907 32.8508C7.44226 33.1641 7.86689 33.3401 8.3098 33.3401L31.6898 33.3401C32.1327 33.3401 32.5574 33.1641 32.8705 32.8508C33.1838 32.5376 33.3598 32.113 33.3598 31.6701V24.9901C33.3598 24.0677 34.1075 23.3201 35.0298 23.3201C35.9521 23.3201 36.6998 24.0677 36.6998 24.9901L36.6998 31.6701C36.6998 32.9989 36.1716 34.2728 35.232 35.2123C34.2925 36.1518 33.0186 36.6801 31.6898 36.6801L8.3098 36.6801C6.98107 36.6801 5.70714 36.1518 4.76758 35.2123C3.94561 34.3903 3.43826 33.3125 3.32427 32.1659L3.2998 31.6701Z" fill="#0A4D79"/>
<path d="M18.9463 3.70015C19.6023 3.16516 20.5692 3.20289 21.1806 3.81431L29.5306 12.1643L29.6448 12.2915C30.1797 12.9474 30.142 13.9144 29.5306 14.5258C28.9192 15.1372 27.9523 15.1749 27.2963 14.6399L27.1692 14.5258L19.9999 7.35653L12.8306 14.5258C12.1784 15.178 11.1213 15.178 10.4691 14.5258C9.81694 13.8736 9.81694 12.8165 10.4691 12.1643L18.8192 3.81431L18.9463 3.70015Z" fill="#0A4D79"/>
<path d="M18.3296 25.0201L18.3296 4.98006C18.3296 4.05775 19.0772 3.31006 19.9996 3.31006C20.9219 3.31006 21.6696 4.05775 21.6696 4.98006L21.6696 25.0201C21.6696 25.9424 20.9219 26.6901 19.9996 26.6901C19.0772 26.6901 18.3296 25.9424 18.3296 25.0201Z" fill="#0A4D79"/>
</svg>
