<svg width="5" height="8" viewBox="0 0 5 8" fill="none" xmlns="http://www.w3.org/2000/svg">
<path d="M0.259674 3.00009C0.259674 2.20447 0.576054 1.44154 1.13861 0.878937C1.70117 0.31636 2.46419 6.00018e-05 3.25982 0C3.81203 0 4.25985 0.447734 4.25985 1.00003C4.25985 1.55235 3.81203 2.00006 3.25982 2.00006C2.99461 2.00016 2.7402 2.10556 2.55269 2.29307C2.36529 2.48058 2.25978 2.73488 2.25978 3.00009C2.25978 4.06992 2.15598 5.59897 1.99408 7.10662C1.93518 7.65573 1.44246 8.05315 0.893484 7.99434C0.344447 7.93544 -0.0530259 7.44283 0.00576593 6.89381C0.163861 5.42147 0.259674 3.97022 0.259674 3.00009Z" fill="#19191F"/>
</svg>
