<svg width="16" height="16" viewBox="0 0 16 16" fill="none" xmlns="http://www.w3.org/2000/svg">
<path d="M4.66016 4.01003L4.66016 1.33003C4.66016 0.960007 4.96013 0.660034 5.33016 0.660034C5.70018 0.660034 6.00016 0.960007 6.00016 1.33003L6.00016 4.01003C6.00016 4.38006 5.70018 4.68003 5.33016 4.68003C4.96013 4.68003 4.66016 4.38006 4.66016 4.01003Z" fill="#171A1F"/>
<path d="M10 4.01003V1.33003C10 0.960007 10.3 0.660034 10.67 0.660034C11.04 0.660034 11.34 0.960007 11.34 1.33003V4.01003C11.34 4.38006 11.04 4.68003 10.67 4.68003C10.3 4.68003 10 4.38006 10 4.01003Z" fill="#171A1F"/>
<path d="M13.3598 3.98009C13.3598 3.61007 13.0598 3.31009 12.6898 3.31009L3.3098 3.31009C2.93978 3.31009 2.6398 3.61007 2.6398 3.98009L2.6398 13.3601C2.6398 13.7301 2.93978 14.0301 3.3098 14.0301L12.6898 14.0301C13.0598 14.0301 13.3598 13.7301 13.3598 13.3601L13.3598 3.98009ZM14.6998 13.3601C14.6998 14.4702 13.7999 15.3701 12.6898 15.3701L3.3098 15.3701C2.19972 15.3701 1.2998 14.4702 1.2998 13.3601L1.2998 3.98009C1.2998 2.87 2.19972 1.97009 3.3098 1.97009L12.6898 1.97009C13.7999 1.97009 14.6998 2.87 14.6998 3.98009L14.6998 13.3601Z" fill="#171A1F"/>
<path d="M14.0298 6C14.3998 6 14.6998 6.29997 14.6998 6.67C14.6998 7.04004 14.3998 7.34 14.0298 7.34L1.9698 7.34C1.59978 7.34 1.2998 7.04004 1.2998 6.67C1.2998 6.29997 1.59978 6 1.9698 6L14.0298 6Z" fill="#171A1F"/>
</svg>
