<svg width="24" height="24" viewBox="0 0 24 24" fill="none" xmlns="http://www.w3.org/2000/svg">
<path d="M2 19L2 15C2 14.4477 2.44772 14 3 14C3.55228 14 4 14.4477 4 15L4 19L4.00488 19.0986C4.02757 19.3276 4.12883 19.5429 4.29297 19.707C4.48051 19.8946 4.73478 20 5 20L19 20C19.2652 20 19.5195 19.8946 19.707 19.707C19.8946 19.5195 20 19.2652 20 19V15C20 14.4477 20.4477 14 21 14C21.5523 14 22 14.4477 22 15V19C22 19.7957 21.6837 20.5585 21.1211 21.1211C20.5585 21.6837 19.7957 22 19 22L5 22C4.20435 22 3.44152 21.6837 2.87891 21.1211C2.38671 20.6289 2.08291 19.9835 2.01465 19.2969L2 19Z" fill="#EA580C"/>
<path d="M16.3689 9.22438C16.7617 8.90403 17.3407 8.92662 17.7068 9.29274C18.0729 9.65885 18.0955 10.2379 17.7752 10.6307L17.7068 10.7068L12.7068 15.7068C12.3163 16.0974 11.6833 16.0974 11.2928 15.7068L6.29274 10.7068L6.22438 10.6307C5.90403 10.2379 5.92662 9.65885 6.29274 9.29274C6.65886 8.92662 7.23786 8.90403 7.63063 9.22438L7.7068 9.29274L11.9998 13.5857L16.2928 9.29274L16.3689 9.22438Z" fill="#EA580C"/>
<path d="M11 15L11 3C11 2.44772 11.4477 2 12 2C12.5523 2 13 2.44772 13 3L13 15C13 15.5523 12.5523 16 12 16C11.4477 16 11 15.5523 11 15Z" fill="#EA580C"/>
</svg>
