<svg width="20" height="20" viewBox="0 0 20 20" fill="none" xmlns="http://www.w3.org/2000/svg">
<path d="M11.6597 4.17498C11.6597 3.73472 11.4846 3.31262 11.1734 3.00131C10.9009 2.72883 10.5436 2.56075 10.1634 2.52309L9.99969 2.51498C9.55946 2.51498 9.13732 2.68999 8.82598 3.00131C8.51473 3.31262 8.33969 3.73472 8.33969 4.17498L8.33969 9.98498C8.33969 10.4252 8.51473 10.8474 8.82598 11.1587C9.13732 11.4699 9.55946 11.645 9.99969 11.645C10.4399 11.645 10.8621 11.4699 11.1734 11.1587C11.4846 10.8474 11.6597 10.4252 11.6597 9.98498L11.6597 4.17498ZM13.3197 9.98498C13.3197 10.8655 12.9697 11.7097 12.347 12.3323C11.7244 12.955 10.8802 13.305 9.99969 13.305C9.11914 13.305 8.27496 12.955 7.65235 12.3323C7.02972 11.7097 6.67969 10.8655 6.67969 9.98498L6.67969 4.17498C6.67969 3.29446 7.02972 2.45026 7.65235 1.82764C8.27496 1.20502 9.11914 0.85498 9.99969 0.85498L10.1642 0.859031C10.9848 0.899717 11.7633 1.24391 12.347 1.82764C12.9697 2.45026 13.3197 3.29446 13.3197 4.17498L13.3197 9.98498Z" fill="#88CAF5"/>
<path d="M3.35986 10.0049L3.35986 8.34489C3.35986 7.8865 3.73147 7.51489 4.18986 7.51489C4.64826 7.51489 5.01986 7.8865 5.01986 8.34489L5.01986 10.0049L5.02635 10.2521C5.08748 11.4829 5.60335 12.6504 6.47885 13.5259C7.41278 14.4598 8.67908 14.9849 9.99986 14.9849L10.2471 14.9784C11.4778 14.9172 12.6454 14.4014 13.5209 13.5259C14.3964 12.6504 14.9122 11.4829 14.9734 10.2521L14.9799 10.0049V8.34489C14.9799 7.8865 15.3515 7.51489 15.8099 7.51489C16.2683 7.51489 16.6399 7.8865 16.6399 8.34489V10.0049L16.6317 10.334C16.5504 11.9752 15.8628 13.533 14.6953 14.7004C13.5279 15.8678 11.9702 16.5554 10.329 16.6368L9.99986 16.6449C8.23883 16.6449 6.5496 15.9456 5.30436 14.7004C4.13691 13.533 3.44935 11.9752 3.36797 10.334L3.35986 10.0049Z" fill="#88CAF5"/>
<path d="M9.16992 18.3249V15.8349C9.16992 15.3765 9.54151 15.0049 9.99992 15.0049C10.4583 15.0049 10.8299 15.3765 10.8299 15.8349V18.3249C10.8299 18.7833 10.4583 19.1549 9.99992 19.1549C9.54151 19.1549 9.16992 18.7833 9.16992 18.3249Z" fill="#88CAF5"/>
</svg>
