<svg width="24" height="24" viewBox="0 0 24 24" fill="none" xmlns="http://www.w3.org/2000/svg">
<path d="M14 5C14 4.46957 13.7891 3.96101 13.4141 3.58594C13.0858 3.25765 12.6553 3.05515 12.1973 3.00977L12 3C11.4696 3 10.961 3.21086 10.5859 3.58594C10.2109 3.96101 10 4.46957 10 5L10 12C10 12.5304 10.2109 13.039 10.5859 13.4141C10.961 13.7891 11.4696 14 12 14C12.5304 14 13.039 13.7891 13.4141 13.4141C13.7891 13.039 14 12.5304 14 12L14 5ZM16 12C16 13.0609 15.5783 14.078 14.8281 14.8281C14.078 15.5783 13.0609 16 12 16C10.9391 16 9.92202 15.5783 9.17188 14.8281C8.42173 14.078 8 13.0609 8 12L8 5C8 3.93913 8.42173 2.92202 9.17188 2.17188C9.92202 1.42173 10.9391 1 12 1L12.1982 1.00488C13.1869 1.0539 14.1248 1.46859 14.8281 2.17188C15.5783 2.92202 16 3.93913 16 5L16 12Z" fill="#9333EA"/>
<path d="M4 12L4 10C4 9.44772 4.44772 9 5 9C5.55228 9 6 9.44772 6 10L6 12L6.00781 12.2979C6.08146 13.7807 6.703 15.1874 7.75781 16.2422C8.88303 17.3674 10.4087 18 12 18L12.2979 17.9922C13.7807 17.9185 15.1874 17.297 16.2422 16.2422C17.297 15.1874 17.9185 13.7807 17.9922 12.2979L18 12V10C18 9.44772 18.4477 9 19 9C19.5523 9 20 9.44772 20 10V12L19.9902 12.3965C19.8922 14.3739 19.0638 16.2507 17.6572 17.6572C16.2507 19.0638 14.3739 19.8922 12.3965 19.9902L12 20C9.87827 20 7.84306 19.1575 6.34277 17.6572C4.9362 16.2507 4.10781 14.3739 4.00977 12.3965L4 12Z" fill="#9333EA"/>
<path d="M11 22L11 19C11 18.4477 11.4477 18 12 18C12.5523 18 13 18.4477 13 19V22C13 22.5523 12.5523 23 12 23C11.4477 23 11 22.5523 11 22Z" fill="#9333EA"/>
</svg>
