<svg width="3" height="8" viewBox="0 0 3 8" fill="none" xmlns="http://www.w3.org/2000/svg">
<path d="M0.800872 0.0201256C1.30833 -0.082775 1.80468 0.218607 1.95507 0.702683L1.98046 0.801304L2.01366 1.0142C2.04436 1.25188 2.06606 1.55915 2.08196 1.87932C2.10455 2.33288 2.11955 2.89013 2.12395 3.48568C2.13265 4.66957 2.10015 6.04834 1.99506 7.09955C1.94007 7.649 1.44991 8.04996 0.900463 7.99497C0.351013 7.93997 -0.0499505 7.44982 0.00504445 6.90037C0.0998358 5.95205 0.132633 4.65437 0.124134 3.50028C0.119935 2.92663 0.106036 2.39838 0.0851381 1.97892C0.0739392 1.75604 0.0613402 1.58025 0.0499412 1.45066L0.0196439 1.19969L0.00504445 1.0982C-0.045051 0.593893 0.293618 0.123186 0.800872 0.0201256Z" fill="#19191F"/>
</svg>
