<svg width="14" height="14" viewBox="0 0 14 14" fill="none" xmlns="http://www.w3.org/2000/svg">
<path d="M8.75033 2.94003L8.75033 11.06L9.91033 11.06L9.91033 2.94003H8.75033ZM11.0703 11.06C11.0703 11.7007 10.551 12.22 9.91033 12.22L8.75033 12.22C8.10966 12.22 7.59033 11.7007 7.59033 11.06L7.59033 2.94003C7.59033 2.29938 8.10966 1.78003 8.75033 1.78003L9.91033 1.78003C10.551 1.78003 11.0703 2.29938 11.0703 2.94003L11.0703 11.06Z" fill="#88CAF5"/>
<path d="M4.09018 2.94003L4.09018 11.06L5.25018 11.06L5.25018 2.94003H4.09018ZM6.41018 11.06C6.41018 11.7007 5.89084 12.22 5.25018 12.22L4.09018 12.22C3.44953 12.22 2.93018 11.7007 2.93018 11.06L2.93018 2.94003C2.93018 2.29938 3.44953 1.78003 4.09018 1.78003L5.25018 1.78003C5.89084 1.78003 6.41018 2.29938 6.41018 2.94003L6.41018 11.06Z" fill="#88CAF5"/>
</svg>
