<svg width="28" height="11" viewBox="0 0 28 11" fill="none" xmlns="http://www.w3.org/2000/svg">
<path d="M3.87191 0C1.61089 0 0 1.54725 0 3.6657V3.68023C0 5.66122 1.40138 7.12179 3.40237 7.12179C4.83258 7.12179 5.74284 6.39156 6.12567 5.56727H6.27016C6.27016 5.64679 6.2629 5.72631 6.2629 5.80584C6.18345 7.80136 5.48281 9.42097 3.82856 9.42097C2.91115 9.42097 2.26828 8.94374 1.99373 8.21351L1.97205 8.14125H0.137223L0.151743 8.22077C0.483963 9.81859 1.91428 10.9538 3.82856 10.9538C6.45074 10.9538 8.0327 8.87148 8.0327 5.35756V5.34313C8.0327 1.58348 6.09673 0 3.87191 0ZM3.86465 5.69019C2.67995 5.69019 1.82041 4.82261 1.82041 3.61514V3.60071C1.82041 2.43663 2.73772 1.51839 3.88633 1.51839C5.0421 1.51839 5.94509 2.45106 5.94509 3.644V3.65853C5.94509 4.83704 5.0421 5.69019 3.86465 5.69019Z" fill="#171A1F"/>
<path d="M10.9614 3.93325C11.6259 3.93325 12.1099 3.42715 12.1099 2.79087C12.1099 2.14743 11.6259 1.64849 10.9614 1.64849C10.304 1.64849 9.81274 2.14743 9.81274 2.79087C9.81274 3.42715 10.304 3.93325 10.9614 3.93325ZM10.9614 9.29808C11.6259 9.29808 12.1099 8.79915 12.1099 8.1557C12.1099 7.51226 11.6259 7.01332 10.9614 7.01332C10.304 7.01332 9.81274 7.51226 9.81274 8.1557C9.81274 8.79915 10.304 9.29808 10.9614 9.29808Z" fill="#171A1F"/>
<path d="M18.9695 10.6934H20.7538V8.69074H22.1551V7.15065H20.7538V0.260361H18.1171C16.7013 2.41493 15.2204 4.81533 13.8696 7.16518V8.69074H18.9695V10.6934ZM15.6033 7.19404V7.08555C16.6146 5.31416 17.8209 3.38373 18.89 1.74979H18.9984V7.19404H15.6033Z" fill="#171A1F"/>
<path d="M26.136 10.6934H27.9998V0.260361H26.1433L23.42 2.17636V3.93322L26.0132 2.09674H26.136V10.6934Z" fill="#171A1F"/>
</svg>
