<svg width="24" height="24" viewBox="0 0 24 24" fill="none" xmlns="http://www.w3.org/2000/svg">
<path d="M12.9214 20.4139C13.2178 20.0027 13.7835 19.8748 14.2319 20.1336C14.6804 20.3925 14.8529 20.9467 14.645 21.409L14.5982 21.4998C14.3349 21.9557 13.9563 22.3342 13.5005 22.5975C13.0446 22.8607 12.5269 22.9997 12.0005 22.9998C11.474 22.9998 10.9565 22.8607 10.5005 22.5975C10.1014 22.3671 9.76152 22.0484 9.50638 21.6668L9.40189 21.4998L9.35501 21.409C9.14717 20.9467 9.3197 20.3925 9.7681 20.1336C10.2165 19.8748 10.7822 20.0027 11.0786 20.4139L11.1343 20.4998L11.2066 20.6092C11.2862 20.7129 11.3865 20.8002 11.5005 20.866C11.6524 20.9536 11.8251 20.9998 12.0005 20.9998C12.1759 20.9997 12.3486 20.9537 12.5005 20.866C12.6524 20.7783 12.778 20.6517 12.8657 20.4998L12.9214 20.4139Z" fill="#1F1E28"/>
<path d="M16.9999 8C16.9999 6.67409 16.4735 5.40249 15.536 4.46484C14.5983 3.52716 13.326 3 11.9999 3C10.6739 3.00007 9.40236 3.52722 8.46474 4.46484C7.52714 5.40251 6.9999 6.67398 6.9999 8L6.99599 8.43359C6.95318 10.5585 6.5935 12.0774 6.0331 13.2637C5.44264 14.5136 4.65909 15.3205 4.00087 16L19.9999 16C19.3403 15.3201 18.5578 14.5128 17.9677 13.2637C17.3697 11.998 16.9999 10.3541 16.9999 8ZM18.9999 8C18.9999 10.1447 19.3358 11.4789 19.7753 12.4092C20.1057 13.1086 20.5129 13.6223 20.9764 14.125L21.4579 14.6309L21.4794 14.6543C21.7402 14.941 21.9124 15.2971 21.9745 15.6797C22.0365 16.0621 21.9866 16.4543 21.83 16.8086C21.6732 17.1629 21.4164 17.4644 21.0917 17.6758C20.8074 17.8608 20.4812 17.9708 20.1444 17.9951L19.9999 18L3.9999 18C3.61228 17.9997 3.23273 17.8866 2.9081 17.6748C2.58346 17.463 2.32717 17.1613 2.1708 16.8066C2.01447 16.452 1.96465 16.0593 2.02724 15.6768C2.08986 15.2944 2.26224 14.9386 2.52333 14.6523L2.54384 14.6299L3.02529 14.125C3.48811 13.6225 3.89412 13.1086 4.22451 12.4092C4.6365 11.537 4.95747 10.3099 4.99599 8.39258L4.9999 8C4.9999 6.14348 5.73792 4.36256 7.05068 3.0498C8.36334 1.73734 10.1436 1.00007 11.9999 1C13.8563 1 15.6373 1.73713 16.9501 3.0498C18.2628 4.36256 18.9999 6.14348 18.9999 8Z" fill="#1F1E28"/>
</svg>
