<svg width="20" height="20" viewBox="0 0 20 20" fill="none" xmlns="http://www.w3.org/2000/svg">
<path d="M17.4701 10.0001C17.4701 5.87455 14.1257 2.53012 10.0001 2.53012C5.87455 2.53012 2.53012 5.87455 2.53012 10.0001C2.53012 14.1257 5.87455 17.4701 10.0001 17.4701C14.1257 17.4701 17.4701 14.1257 17.4701 10.0001ZM19.1301 10.0001C19.1301 15.0424 15.0424 19.1301 10.0001 19.1301C4.95776 19.1301 0.870117 15.0424 0.870117 10.0001C0.870117 4.95776 4.95776 0.870117 10.0001 0.870117C15.0424 0.870117 19.1301 4.95776 19.1301 10.0001Z" fill="#565D6D"/>
<path d="M9.16992 13.3302L9.16992 10.0102C9.16992 9.55177 9.54151 9.18018 9.99992 9.18018C10.4583 9.18018 10.8299 9.55177 10.8299 10.0102L10.8299 13.3302C10.8299 13.7886 10.4583 14.1602 9.99992 14.1602C9.54151 14.1602 9.16992 13.7886 9.16992 13.3302Z" fill="#565D6D"/>
<path d="M10.0081 5.84033L10.0931 5.84438C10.5116 5.8869 10.8381 6.24059 10.8381 6.67033C10.8381 7.10007 10.5116 7.45376 10.0931 7.49628L10.0081 7.50033H9.99992C9.54151 7.50033 9.16992 7.12872 9.16992 6.67033C9.16992 6.21194 9.54151 5.84033 9.99992 5.84033H10.0081Z" fill="#565D6D"/>
</svg>
