<svg width="40" height="40" viewBox="0 0 40 40" fill="none" xmlns="http://www.w3.org/2000/svg">
<path d="M23.3403 8.32502C23.3403 7.4392 22.9881 6.58991 22.3619 5.96354C21.8136 5.41529 21.0947 5.07712 20.3298 5.00134L20.0003 4.98502C19.1145 4.98502 18.2652 5.33716 17.6388 5.96354C17.0125 6.58991 16.6603 7.4392 16.6603 8.32502L16.6603 20.015C16.6603 20.9008 17.0125 21.7501 17.6388 22.3766C18.2652 23.0028 19.1145 23.355 20.0003 23.355C20.8861 23.355 21.7354 23.0028 22.3619 22.3766C22.9881 21.7501 23.3403 20.9008 23.3403 20.015L23.3403 8.32502ZM26.6803 20.015C26.6803 21.7867 25.9761 23.4853 24.7232 24.7379C23.4706 25.9908 21.772 26.695 20.0003 26.695C18.2286 26.695 16.5301 25.9908 15.2774 24.7379C14.0246 23.4853 13.3203 21.7867 13.3203 20.015L13.3203 8.32502C13.3203 6.55337 14.0246 4.85479 15.2774 3.60206C16.5301 2.34931 18.2286 1.64502 20.0003 1.64502L20.3313 1.65317C21.9824 1.73503 23.5487 2.42756 24.7232 3.60206C25.9761 4.85479 26.6803 6.55337 26.6803 8.32502L26.6803 20.015Z" fill="#0A4D79"/>
<path d="M6.64014 19.9951L6.64014 16.6551C6.64014 15.7328 7.38783 14.9851 8.31014 14.9851C9.23244 14.9851 9.98014 15.7328 9.98014 16.6551L9.98014 19.9951L9.99318 20.4926C10.1162 22.9689 11.1541 25.3181 12.9157 27.0796C14.7948 28.9587 17.3427 30.0151 20.0001 30.0151L20.4976 30.0021C22.9739 29.879 25.3231 28.8411 27.0846 27.0796C28.8461 25.3181 29.884 22.9689 30.0071 20.4926L30.0201 19.9951L30.0201 16.6551C30.0201 15.7328 30.7678 14.9851 31.6901 14.9851C32.6125 14.9851 33.3601 15.7328 33.3601 16.6551V19.9951L33.3438 20.6573C33.1801 23.9595 31.7967 27.0938 29.4477 29.4426C27.0988 31.7917 23.9645 33.1751 20.6623 33.3387L20.0001 33.3551C16.4568 33.3551 13.058 31.9481 10.5526 29.4426C8.20359 27.0938 6.82018 23.9595 6.65645 20.6573L6.64014 19.9951Z" fill="#0A4D79"/>
<path d="M18.3301 36.6751L18.3301 31.6651C18.3301 30.7428 19.0777 29.9951 20.0001 29.9951C20.9224 29.9951 21.6701 30.7428 21.6701 31.6651L21.6701 36.6751C21.6701 37.5975 20.9224 38.3451 20.0001 38.3451C19.0777 38.3451 18.3301 37.5975 18.3301 36.6751Z" fill="#0A4D79"/>
</svg>
