<svg width="16" height="16" viewBox="0 0 16 16" fill="none" xmlns="http://www.w3.org/2000/svg">
<path d="M4.66016 4.00991L4.66016 1.32991C4.66016 0.959885 4.96013 0.659912 5.33016 0.659912C5.70018 0.659912 6.00016 0.959885 6.00016 1.32991L6.00016 4.00991C6.00016 4.37994 5.70018 4.67991 5.33016 4.67991C4.96013 4.67991 4.66016 4.37994 4.66016 4.00991Z" fill="#565D6D"/>
<path d="M10 4.00991V1.32991C10 0.959885 10.3 0.659912 10.67 0.659912C11.04 0.659912 11.34 0.959885 11.34 1.32991V4.00991C11.34 4.37994 11.04 4.67991 10.67 4.67991C10.3 4.67991 10 4.37994 10 4.00991Z" fill="#565D6D"/>
<path d="M13.3598 3.97997C13.3598 3.60994 13.0598 3.30997 12.6898 3.30997L3.3098 3.30997C2.93978 3.30997 2.6398 3.60994 2.6398 3.97997L2.6398 13.36C2.6398 13.73 2.93978 14.03 3.3098 14.03L12.6898 14.03C13.0598 14.03 13.3598 13.73 13.3598 13.36L13.3598 3.97997ZM14.6998 13.36C14.6998 14.4701 13.7999 15.37 12.6898 15.37L3.3098 15.37C2.19972 15.37 1.2998 14.4701 1.2998 13.36L1.2998 3.97997C1.2998 2.86988 2.19972 1.96997 3.3098 1.96997L12.6898 1.96997C13.7999 1.96997 14.6998 2.86988 14.6998 3.97997L14.6998 13.36Z" fill="#565D6D"/>
<path d="M14.0298 6C14.3998 6 14.6998 6.29997 14.6998 6.67C14.6998 7.04004 14.3998 7.34 14.0298 7.34L1.9698 7.34C1.59978 7.34 1.2998 7.04004 1.2998 6.67C1.2998 6.29997 1.59978 6 1.9698 6L14.0298 6Z" fill="#565D6D"/>
</svg>
