<svg width="20" height="12" viewBox="0 0 20 12" fill="none" xmlns="http://www.w3.org/2000/svg">
<path d="M0 11C0 8.69139 0.726325 6.44131 2.07613 4.56847C3.42603 2.69558 5.33114 1.2947 7.52133 0.564637C9.7115 -0.165422 12.0764 -0.18818 14.28 0.500188C16.3459 1.14559 18.1722 2.38543 19.5338 4.05969L19.7994 4.4005L19.857 4.48546C20.1183 4.91953 20.0133 5.48934 19.5992 5.79988C19.185 6.11038 18.6087 6.05135 18.2652 5.67879L18.1998 5.59969L17.982 5.32138C16.8681 3.95155 15.3736 2.93735 13.6833 2.40933C11.8805 1.84615 9.946 1.86483 8.15413 2.46206C6.36231 3.05934 4.80359 4.20522 3.69914 5.73738C2.59468 7.26974 1.99996 9.11111 1.99996 11C1.99996 11.5523 1.55225 12 0.99998 12C0.447711 12 0 11.5523 0 11Z" fill="#19191F"/>
</svg>
