<svg width="27" height="27" viewBox="0 0 27 27" fill="none" xmlns="http://www.w3.org/2000/svg">
<path d="M24.2999 4.04999C24.2999 3.30441 23.6955 2.69999 22.9499 2.69999L4.04999 2.69999C3.30441 2.69999 2.69999 3.30441 2.69999 4.04999L2.69999 22.9499C2.69999 23.6955 3.30441 24.2999 4.04999 24.2999L22.9499 24.2999C23.6955 24.2999 24.2999 23.6955 24.2999 22.9499L24.2999 4.04999ZM26.9999 22.9499C26.9999 25.1867 25.1867 26.9999 22.9499 26.9999L4.04999 26.9999C1.81325 26.9999 0 25.1867 0 22.9499L0 4.04999C0 1.81325 1.81325 0 4.04999 0L22.9499 0C25.1867 0 26.9999 1.81325 26.9999 4.04999L26.9999 22.9499Z" fill="white"/>
</svg>
