<svg width="20" height="20" viewBox="0 0 20 20" fill="none" xmlns="http://www.w3.org/2000/svg">
<path d="M0.870117 14.9751L0.870117 4.18507C0.870117 3.52468 1.13265 2.89153 1.59961 2.42456C2.06658 1.9576 2.69973 1.69507 3.36012 1.69507L6.62176 1.69507L6.77657 1.69993C7.13523 1.72228 7.4853 1.82231 7.80273 1.99335C8.16558 2.1889 8.47491 2.471 8.70158 2.81524L9.36874 3.8033L9.37355 3.8114L9.43597 3.89489C9.5032 3.97346 9.58487 4.03891 9.67675 4.0878C9.79917 4.153 9.93596 4.18638 10.0747 4.18507L16.6401 4.18507L16.8865 4.19723C17.4564 4.25388 17.9921 4.50604 18.4006 4.91456C18.8676 5.38153 19.1301 6.01468 19.1301 6.67507L19.1301 14.9751C19.1301 15.6355 18.8676 16.2686 18.4006 16.7356C17.9337 17.2025 17.3005 17.4651 16.6401 17.4651L3.36012 17.4651C2.69973 17.4651 2.06658 17.2025 1.59961 16.7356C1.13265 16.2686 0.870117 15.6354 0.870117 14.9751ZM2.53012 14.9751C2.53012 15.1952 2.61762 15.4063 2.77328 15.5619C2.92894 15.7176 3.13998 15.8051 3.36012 15.8051L16.6401 15.8051C16.8602 15.8051 17.0713 15.7176 17.2269 15.5619C17.3826 15.4063 17.4701 15.1952 17.4701 14.9751L17.4701 6.67507C17.4701 6.45494 17.3826 6.24389 17.2269 6.08823C17.0907 5.952 16.912 5.86795 16.722 5.84912L16.6401 5.84507L10.0828 5.84507C9.66928 5.84772 9.26125 5.7477 8.89613 5.55327C8.53135 5.35897 8.22094 5.07648 7.99239 4.73219L7.32045 3.73684L7.31478 3.72873C7.23925 3.61406 7.13653 3.51995 7.01569 3.45477C6.92507 3.40593 6.82625 3.37425 6.7247 3.36155L6.62176 3.35507L3.36012 3.35507C3.13998 3.35507 2.92894 3.44258 2.77328 3.59823C2.61762 3.75389 2.53012 3.96494 2.53012 4.18507L2.53012 14.9751Z" fill="#565D6D"/>
</svg>
