<svg width="20" height="20" viewBox="0 0 20 20" fill="none" xmlns="http://www.w3.org/2000/svg">
<path d="M11.918 2.76323C12.2218 2.45935 12.7024 2.44061 13.0284 2.7065L13.0916 2.76323L17.2416 6.91323C17.5658 7.23737 17.5658 7.76277 17.2416 8.0869L13.0916 12.2369C12.7675 12.5611 12.2421 12.5611 11.918 12.2369C11.5938 11.9128 11.5938 11.3874 11.918 11.0633L15.4811 7.50007L11.918 3.9369L11.8612 3.87368C11.5953 3.54768 11.6141 3.06711 11.918 2.76323Z" fill="#CA5551"/>
<path d="M2.52979 12.0801C2.52979 10.6492 3.09778 9.27657 4.10954 8.26481C5.1213 7.25305 6.49394 6.68506 7.92479 6.68506L16.6398 6.68506C17.0982 6.68506 17.4698 7.05667 17.4698 7.51506C17.4698 7.97345 17.0982 8.34506 16.6398 8.34506L7.92479 8.34506C6.93421 8.34506 5.98447 8.73881 5.28402 9.43933C4.58358 10.1398 4.18979 11.0895 4.18979 12.0801L4.19465 12.2641C4.21574 12.6916 4.31015 13.1127 4.47428 13.5091C4.66199 13.9622 4.9372 14.374 5.28402 14.7208C5.98447 15.4213 6.93421 15.8151 7.92479 15.8151L10.8298 15.8151C11.2882 15.8151 11.6598 16.1866 11.6598 16.6451C11.6598 17.1035 11.2882 17.4751 10.8298 17.4751L7.92479 17.4751C6.58342 17.4751 5.29372 16.9753 4.30408 16.0793L4.10954 15.8953C3.60857 15.3943 3.21185 14.7991 2.94073 14.1445C2.70347 13.5717 2.56666 12.963 2.53627 12.3451L2.52979 12.0801Z" fill="#CA5551"/>
</svg>
