<svg width="271" height="111" viewBox="0 0 271 111" fill="none" xmlns="http://www.w3.org/2000/svg">
<path d="M0.5 55.5H270.5" stroke="#DEE1E6" stroke-dasharray="3 3"/>
<path d="M0.5 0.5H270.5" stroke="#DEE1E6" stroke-dasharray="3 3"/>
<path d="M0.5 110.5H270.5" stroke="#DEE1E6" stroke-dasharray="3 3"/>
<path opacity="0.8" d="M0.5 51.1C2.337 35.7 4.173 20.3 6.01 20.3C7.847 20.3 9.684 83 11.52 83C13.357 83 15.194 74.2 17.031 74.2C18.867 74.2 20.704 87.4 22.541 87.4C24.378 87.4 26.214 55.5 28.051 55.5C29.888 55.5 31.724 73.1 33.561 73.1C35.398 73.1 37.235 65.7671 39.071 61C40.908 56.233 42.745 44.5 44.582 44.5C46.418 44.5 48.255 51.1 50.092 56.6C51.929 62.1 53.765 77.5 55.602 77.5C57.439 77.5 59.276 74.9331 61.112 69.8C62.949 64.667 64.786 35.7001 66.622 35.7001C68.459 35.7001 70.296 61 72.133 61C73.969 61 75.806 41.5671 77.643 37.9001C79.48 34.2331 81.316 32.4001 83.153 32.4001C84.99 32.4001 86.827 44.5 88.663 44.5C90.5 44.5 92.337 8.20005 94.173 8.20005C96.01 8.20005 97.847 11.133 99.684 17C101.52 22.867 103.357 69.8 105.194 69.8C107.031 69.8 108.867 37.9001 110.704 37.9001C112.541 37.9001 114.378 39 116.214 41.2001C118.051 43.4001 119.888 86.3 121.724 86.3C123.561 86.3 125.398 14.8 127.235 14.8C129.071 14.8 130.908 33.5 132.745 33.5C134.582 33.5 136.418 21.4 138.255 21.4C140.092 21.4 141.929 54.4001 143.765 54.4001C145.602 54.4001 147.439 29.1 149.276 29.1C151.112 29.1 152.949 35.7001 154.786 35.7001C156.622 35.7001 158.459 28 160.296 28C162.133 28 163.969 48.717 165.806 55.5C167.643 62.2831 169.48 68.7 171.316 68.7C173.153 68.7 174.99 61.3671 176.827 54.4001C178.663 47.4331 180.5 35.333 182.337 26.9001C184.173 18.4671 186.01 3.80005 187.847 3.80005C189.684 3.80005 191.52 44.133 193.357 50C195.194 55.8671 197.031 56.4171 198.867 58.8001C200.704 61.1831 202.541 62.6501 204.378 64.3001C206.214 65.9501 208.051 68.7 209.888 68.7C211.724 68.7 213.561 10.4 215.398 10.4C217.235 10.4 219.071 16.45 220.908 19.2C222.745 21.9501 224.582 26.9001 226.418 26.9001C228.255 26.9001 230.092 8.20005 231.929 8.20005C233.765 8.20005 235.602 46.7001 237.439 46.7001C239.276 46.7001 241.112 40.6501 242.949 35.7001C244.786 30.75 246.622 21.4 248.459 17C250.296 12.6 252.133 10.767 253.969 9.30005C255.806 7.83305 257.643 7.10005 259.48 7.10005C261.316 7.10005 263.153 36.8 264.99 45.6C266.827 54.4 268.663 57.1501 270.5 59.9001V110.5C268.663 110.5 266.827 110.5 264.99 110.5C263.153 110.5 261.316 110.5 259.48 110.5C257.643 110.5 255.806 110.5 253.969 110.5C252.133 110.5 250.296 110.5 248.459 110.5C246.622 110.5 244.786 110.5 242.949 110.5C241.112 110.5 239.276 110.5 237.439 110.5C235.602 110.5 233.765 110.5 231.929 110.5C230.092 110.5 228.255 110.5 226.418 110.5C224.582 110.5 222.745 110.5 220.908 110.5C219.071 110.5 217.235 110.5 215.398 110.5C213.561 110.5 211.724 110.5 209.888 110.5C208.051 110.5 206.214 110.5 204.378 110.5C202.541 110.5 200.704 110.5 198.867 110.5C197.031 110.5 195.194 110.5 193.357 110.5C191.52 110.5 189.684 110.5 187.847 110.5C186.01 110.5 184.173 110.5 182.337 110.5C180.5 110.5 178.663 110.5 176.827 110.5C174.99 110.5 173.153 110.5 171.316 110.5C169.48 110.5 167.643 110.5 165.806 110.5C163.969 110.5 162.133 110.5 160.296 110.5C158.459 110.5 156.622 110.5 154.786 110.5C152.949 110.5 151.112 110.5 149.276 110.5C147.439 110.5 145.602 110.5 143.765 110.5C141.929 110.5 140.092 110.5 138.255 110.5C136.418 110.5 134.582 110.5 132.745 110.5C130.908 110.5 129.071 110.5 127.235 110.5C125.398 110.5 123.561 110.5 121.724 110.5C119.888 110.5 118.051 110.5 116.214 110.5C114.378 110.5 112.541 110.5 110.704 110.5C108.867 110.5 107.031 110.5 105.194 110.5C103.357 110.5 101.52 110.5 99.684 110.5C97.847 110.5 96.01 110.5 94.173 110.5C92.337 110.5 90.5 110.5 88.663 110.5C86.827 110.5 84.99 110.5 83.153 110.5C81.316 110.5 79.48 110.5 77.643 110.5C75.806 110.5 73.969 110.5 72.133 110.5C70.296 110.5 68.459 110.5 66.622 110.5C64.786 110.5 62.949 110.5 61.112 110.5C59.276 110.5 57.439 110.5 55.602 110.5C53.765 110.5 51.929 110.5 50.092 110.5C48.255 110.5 46.418 110.5 44.582 110.5C42.745 110.5 40.908 110.5 39.071 110.5C37.235 110.5 35.398 110.5 33.561 110.5C31.724 110.5 29.888 110.5 28.051 110.5C26.214 110.5 24.378 110.5 22.541 110.5C20.704 110.5 18.867 110.5 17.031 110.5C15.194 110.5 13.357 110.5 11.52 110.5C9.684 110.5 7.847 110.5 6.01 110.5C4.173 110.5 2.337 110.5 0.5 110.5V51.1Z" fill="#8ACAF5" fill-opacity="0.6"/>
<path opacity="0.8" d="M0.5 51.1C2.337 35.7 4.173 20.3 6.01 20.3C7.847 20.3 9.684 83 11.52 83C13.357 83 15.194 74.2 17.031 74.2C18.867 74.2 20.704 87.4 22.541 87.4C24.378 87.4 26.214 55.5 28.051 55.5C29.888 55.5 31.724 73.1 33.561 73.1C35.398 73.1 37.235 65.767 39.071 61C40.908 56.233 42.745 44.5 44.582 44.5C46.418 44.5 48.255 51.1 50.092 56.6C51.929 62.1 53.765 77.5 55.602 77.5C57.439 77.5 59.276 74.933 61.112 69.8C62.949 64.667 64.786 35.7001 66.622 35.7001C68.459 35.7001 70.296 61 72.133 61C73.969 61 75.806 41.5671 77.643 37.9001C79.48 34.2331 81.316 32.4001 83.153 32.4001C84.99 32.4001 86.827 44.5 88.663 44.5C90.5 44.5 92.337 8.20005 94.173 8.20005C96.01 8.20005 97.847 11.133 99.684 17C101.52 22.867 103.357 69.8 105.194 69.8C107.031 69.8 108.867 37.9001 110.704 37.9001C112.541 37.9001 114.378 39.0001 116.214 41.2001C118.051 43.4001 119.888 86.3 121.724 86.3C123.561 86.3 125.398 14.8 127.235 14.8C129.071 14.8 130.908 33.5 132.745 33.5C134.582 33.5 136.418 21.4 138.255 21.4C140.092 21.4 141.929 54.4001 143.765 54.4001C145.602 54.4001 147.439 29.1 149.276 29.1C151.112 29.1 152.949 35.7001 154.786 35.7001C156.622 35.7001 158.459 28 160.296 28C162.133 28 163.969 48.717 165.806 55.5C167.643 62.283 169.48 68.7 171.316 68.7C173.153 68.7 174.99 61.3671 176.827 54.4001C178.663 47.4331 180.5 35.3331 182.337 26.9001C184.173 18.4671 186.01 3.80005 187.847 3.80005C189.684 3.80005 191.52 44.133 193.357 50C195.194 55.867 197.031 56.4171 198.867 58.8001C200.704 61.1831 202.541 62.6501 204.378 64.3001C206.214 65.9501 208.051 68.7 209.888 68.7C211.724 68.7 213.561 10.4 215.398 10.4C217.235 10.4 219.071 16.45 220.908 19.2C222.745 21.95 224.582 26.9001 226.418 26.9001C228.255 26.9001 230.092 8.20005 231.929 8.20005C233.765 8.20005 235.602 46.7001 237.439 46.7001C239.276 46.7001 241.112 40.6501 242.949 35.7001C244.786 30.7501 246.622 21.4 248.459 17C250.296 12.6 252.133 10.767 253.969 9.30005C255.806 7.83305 257.643 7.10005 259.48 7.10005C261.316 7.10005 263.153 36.8 264.99 45.6C266.827 54.4 268.663 57.1501 270.5 59.9001" stroke="#8ACAF5" stroke-linecap="round"/>
</svg>
