<svg width="292" height="85" viewBox="0 0 292 85" fill="none" xmlns="http://www.w3.org/2000/svg">
<path d="M0 21C0 20.4477 0.447715 20 1 20C1.55228 20 2 20.4477 2 21V85H0V21Z" fill="#8ACAF5"/>
<path d="M4.8999 16C4.8999 15.4477 5.34762 15 5.8999 15C6.45219 15 6.8999 15.4477 6.8999 16V85H4.8999V16Z" fill="#8ACAF5"/>
<path d="M9.7998 26C9.7998 25.4477 10.2475 25 10.7998 25C11.3521 25 11.7998 25.4477 11.7998 26V85H9.7998V26Z" fill="#8ACAF5"/>
<path d="M14.7002 6C14.7002 5.73478 14.8056 5.48043 14.9931 5.29289C15.1806 5.10536 15.435 5 15.7002 5C16.2525 5 16.7002 5.44772 16.7002 6V85H14.7002V6Z" fill="#8ACAF5"/>
<path d="M19.6001 31C19.6001 30.4477 20.0478 30 20.6001 30C21.1524 30 21.6001 30.4477 21.6001 31V85H19.6001V31Z" fill="#8ACAF5"/>
<path d="M24.5 11C24.5 10.4477 24.9477 10 25.5 10C26.0523 10 26.5 10.4477 26.5 11V85H24.5V11Z" fill="#8ACAF5"/>
<path d="M29.3999 18C29.3999 17.7348 29.5053 17.4804 29.6928 17.2929C29.8803 17.1054 30.1347 17 30.3999 17C30.6651 17 30.9195 17.1054 31.107 17.2929C31.2945 17.4804 31.3999 17.7348 31.3999 18V85H29.3999V18Z" fill="#8ACAF5"/>
<path d="M34.2998 1C34.2998 0.447715 34.7475 0 35.2998 0C35.8521 0 36.2998 0.447715 36.2998 1V85H34.2998V1Z" fill="#8ACAF5"/>
<path d="M39.2002 14C39.2002 13.4477 39.6479 13 40.2002 13C40.7525 13 41.2002 13.4477 41.2002 14V85H39.2002V14Z" fill="#8ACAF5"/>
<path d="M44.1001 23C44.1001 22.4477 44.5478 22 45.1001 22C45.6524 22 46.1001 22.4477 46.1001 23V85H44.1001V23Z" fill="#8ACAF5"/>
<path d="M49 8C49 7.44772 49.4477 7 50 7C50.5523 7 51 7.44772 51 8V85H49V8Z" fill="#8ACAF5"/>
<path d="M53.8999 27C53.8999 26.4477 54.3476 26 54.8999 26C55.4522 26 55.8999 26.4477 55.8999 27V85H53.8999V27Z" fill="#8ACAF5"/>
<path d="M58.7998 4C58.7998 3.44772 59.2475 3 59.7998 3C60.3521 3 60.7998 3.44772 60.7998 4V85H58.7998V4Z" fill="#8ACAF5"/>
<path d="M63.7002 20C63.7002 19.4477 64.1479 19 64.7002 19C65.2525 19 65.7002 19.4477 65.7002 20V85H63.7002V20Z" fill="#8ACAF5"/>
<path d="M68.6001 15C68.6001 14.4477 69.0478 14 69.6001 14C70.1524 14 70.6001 14.4477 70.6001 15V85H68.6001V15Z" fill="#8ACAF5"/>
<path d="M73.5 22C73.5 21.4477 73.9477 21 74.5 21C75.0523 21 75.5 21.4477 75.5 22V85H73.5V22Z" fill="#8ACAF5"/>
<path d="M78.3999 6C78.3999 5.44772 78.8476 5 79.3999 5C79.9522 5 80.3999 5.44772 80.3999 6V85H78.3999V6Z" fill="#8ACAF5"/>
<path d="M83.2998 28C83.2998 27.4477 83.7475 27 84.2998 27C84.8521 27 85.2998 27.4477 85.2998 28V85H83.2998V28Z" fill="#8ACAF5"/>
<path d="M88.2002 13C88.2002 12.4477 88.6479 12 89.2002 12C89.7525 12 90.2002 12.4477 90.2002 13V85H88.2002V13Z" fill="#8ACAF5"/>
<path d="M93.1001 19C93.1001 18.4477 93.5478 18 94.1001 18C94.6524 18 95.1001 18.4477 95.1001 19V85H93.1001V19Z" fill="#8ACAF5"/>
<path d="M98 7C98 6.44772 98.4477 6 99 6C99.5523 6 100 6.44772 100 7V85H98V7Z" fill="#8ACAF5"/>
<path d="M102.9 25C102.9 24.4477 103.348 24 103.9 24C104.452 24 104.9 24.4477 104.9 25V85H102.9V25Z" fill="#8ACAF5"/>
<path d="M107.8 3C107.8 2.44772 108.248 2 108.8 2C109.352 2 109.8 2.44772 109.8 3V85H107.8V3Z" fill="#8ACAF5"/>
<path d="M112.7 17C112.7 16.4477 113.148 16 113.7 16C114.252 16 114.7 16.4477 114.7 17V85H112.7V17Z" fill="#8ACAF5"/>
<path d="M117.6 12C117.6 11.4477 118.048 11 118.6 11C119.152 11 119.6 11.4477 119.6 12V85H117.6V12Z" fill="#8ACAF5"/>
<path d="M122.5 24C122.5 23.4477 122.948 23 123.5 23C124.052 23 124.5 23.4477 124.5 24V85H122.5V24Z" fill="#8ACAF5"/>
<path d="M127.4 9C127.4 8.44772 127.848 8 128.4 8C128.952 8 129.4 8.44772 129.4 9V85H127.4V9Z" fill="#8ACAF5"/>
<path d="M132.3 29C132.3 28.4477 132.748 28 133.3 28C133.852 28 134.3 28.4477 134.3 29V85H132.3V29Z" fill="#8ACAF5"/>
<path d="M137.2 10C137.2 9.44772 137.648 9 138.2 9C138.752 9 139.2 9.44772 139.2 10V85H137.2V10Z" fill="#8ACAF5"/>
<path d="M142.1 16C142.1 15.4477 142.548 15 143.1 15C143.652 15 144.1 15.4477 144.1 16V85H142.1V16Z" fill="#8ACAF5"/>
<path d="M147 21C147 20.4477 147.448 20 148 20C148.552 20 149 20.4477 149 21V85H147V21Z" fill="#8ACAF5"/>
<path d="M151.9 16C151.9 15.4477 152.348 15 152.9 15C153.452 15 153.9 15.4477 153.9 16V85H151.9V16Z" fill="#8ACAF5"/>
<path d="M156.8 26C156.8 25.4477 157.248 25 157.8 25C158.352 25 158.8 25.4477 158.8 26V85H156.8V26Z" fill="#8ACAF5"/>
<path d="M161.7 6C161.7 5.44772 162.148 5 162.7 5C163.252 5 163.7 5.44772 163.7 6V85H161.7V6Z" fill="#8ACAF5"/>
<path d="M166.6 31C166.6 30.4477 167.048 30 167.6 30C168.152 30 168.6 30.4477 168.6 31V85H166.6V31Z" fill="#8ACAF5"/>
<path d="M171.5 11C171.5 10.4477 171.948 10 172.5 10C173.052 10 173.5 10.4477 173.5 11V85H171.5V11Z" fill="#8ACAF5"/>
<path d="M176.4 18C176.4 17.7348 176.505 17.4804 176.693 17.2929C176.88 17.1054 177.135 17 177.4 17C177.665 17 177.919 17.1054 178.107 17.2929C178.295 17.4804 178.4 17.7348 178.4 18V85H176.4V18Z" fill="#8ACAF5"/>
<path d="M181.3 1C181.3 0.447715 181.748 0 182.3 0C182.852 0 183.3 0.447715 183.3 1V85H181.3V1Z" fill="#8ACAF5"/>
<path d="M186.2 14C186.2 13.4477 186.648 13 187.2 13C187.752 13 188.2 13.4477 188.2 14V85H186.2V14Z" fill="#8ACAF5"/>
<path d="M191.1 23C191.1 22.4477 191.548 22 192.1 22C192.652 22 193.1 22.4477 193.1 23V85H191.1V23Z" fill="#8ACAF5"/>
<path d="M196 8C196 7.44772 196.448 7 197 7C197.552 7 198 7.44772 198 8V85H196V8Z" fill="#8ACAF5"/>
<path d="M200.9 27C200.9 26.4477 201.348 26 201.9 26C202.452 26 202.9 26.4477 202.9 27V85H200.9V27Z" fill="#8ACAF5"/>
<path d="M205.8 4C205.8 3.44772 206.248 3 206.8 3C207.352 3 207.8 3.44772 207.8 4V85H205.8V4Z" fill="#8ACAF5"/>
<path d="M210.7 20C210.7 19.4477 211.148 19 211.7 19C212.252 19 212.7 19.4477 212.7 20V85H210.7V20Z" fill="#8ACAF5"/>
<path d="M215.6 15C215.6 14.4477 216.048 14 216.6 14C217.152 14 217.6 14.4477 217.6 15V85H215.6V15Z" fill="#8ACAF5"/>
<path d="M220.5 22C220.5 21.4477 220.948 21 221.5 21C222.052 21 222.5 21.4477 222.5 22V85H220.5V22Z" fill="#8ACAF5"/>
<path d="M225.4 6C225.4 5.44772 225.848 5 226.4 5C226.952 5 227.4 5.44772 227.4 6V85H225.4V6Z" fill="#8ACAF5"/>
<path d="M230.3 28C230.3 27.4477 230.748 27 231.3 27C231.852 27 232.3 27.4477 232.3 28V85H230.3V28Z" fill="#8ACAF5"/>
<path d="M235.2 13C235.2 12.4477 235.648 12 236.2 12C236.752 12 237.2 12.4477 237.2 13V85H235.2V13Z" fill="#8ACAF5"/>
<path d="M240.1 19C240.1 18.4477 240.548 18 241.1 18C241.652 18 242.1 18.4477 242.1 19V85H240.1V19Z" fill="#8ACAF5"/>
<path d="M245 7C245 6.44772 245.448 6 246 6C246.552 6 247 6.44772 247 7V85H245V7Z" fill="#8ACAF5"/>
<path d="M249.9 25C249.9 24.4477 250.348 24 250.9 24C251.452 24 251.9 24.4477 251.9 25V85H249.9V25Z" fill="#8ACAF5"/>
<path d="M254.8 3C254.8 2.44772 255.248 2 255.8 2C256.352 2 256.8 2.44772 256.8 3V85H254.8V3Z" fill="#8ACAF5"/>
<path d="M259.7 17C259.7 16.4477 260.148 16 260.7 16C261.252 16 261.7 16.4477 261.7 17V85H259.7V17Z" fill="#8ACAF5"/>
<path d="M264.6 12C264.6 11.4477 265.048 11 265.6 11C266.152 11 266.6 11.4477 266.6 12V85H264.6V12Z" fill="#8ACAF5"/>
<path d="M269.5 24C269.5 23.4477 269.948 23 270.5 23C271.052 23 271.5 23.4477 271.5 24V85H269.5V24Z" fill="#8ACAF5"/>
<path d="M274.4 9C274.4 8.44772 274.848 8 275.4 8C275.952 8 276.4 8.44772 276.4 9V85H274.4V9Z" fill="#8ACAF5"/>
<path d="M279.3 29C279.3 28.4477 279.748 28 280.3 28C280.852 28 281.3 28.4477 281.3 29V85H279.3V29Z" fill="#8ACAF5"/>
<path d="M284.2 10C284.2 9.44772 284.648 9 285.2 9C285.752 9 286.2 9.44772 286.2 10V85H284.2V10Z" fill="#8ACAF5"/>
<path d="M289.1 16C289.1 15.4477 289.548 15 290.1 15C290.652 15 291.1 15.4477 291.1 16V85H289.1V16Z" fill="#8ACAF5"/>
</svg>
