<svg width="20" height="20" viewBox="0 0 20 20" fill="none" xmlns="http://www.w3.org/2000/svg">
<path d="M5.12402 3.28039C6.72272 2.11555 8.68476 1.55985 10.6568 1.7136C12.629 1.86745 14.482 2.72051 15.8808 4.1193C17.2796 5.51811 18.1327 7.37106 18.2865 9.34327C18.4403 11.3154 17.8846 13.2774 16.7197 14.8761C15.5548 16.4749 13.8571 17.6053 11.9326 18.0632C10.1248 18.4932 8.22883 18.3029 6.54653 17.5298L1.97181 19.0812C1.67263 19.1826 1.34168 19.1052 1.1183 18.8818C0.894939 18.6584 0.817494 18.3274 0.918909 18.0283L2.46948 13.4528C1.69684 11.7707 1.50696 9.87497 1.93695 8.06748C2.39481 6.14298 3.52521 4.44533 5.12402 3.28039ZM10.5279 3.36873C8.95028 3.24568 7.38053 3.68998 6.10154 4.62184C4.82249 5.5538 3.91785 6.91208 3.55156 8.45169C3.18532 9.99125 3.38127 11.6111 4.10354 13.0191C4.20602 13.2189 4.22339 13.4517 4.15137 13.6643L3.03119 16.9681L6.33579 15.8487L6.41603 15.8261C6.60587 15.7823 6.80609 15.8068 6.98099 15.8965C8.38903 16.6188 10.0089 16.8148 11.5484 16.4486C13.088 16.0822 14.4463 15.1776 15.3782 13.8986C16.3101 12.6195 16.7544 11.0498 16.6313 9.47217C16.5083 7.89438 15.8262 6.41202 14.7072 5.29297C13.5881 4.17394 12.1057 3.49182 10.5279 3.36873Z" fill="#171A1F"/>
</svg>
