<svg width="24" height="24" viewBox="0 0 24 24" fill="none" xmlns="http://www.w3.org/2000/svg">
<path d="M2.97678 14.7211C3.11303 14.2216 3.60475 13.9142 4.10471 13.9975L4.20432 14.019L14.8849 16.9321C15.4176 17.0775 15.7312 17.6269 15.5861 18.1596C15.4408 18.6924 14.8913 19.007 14.3586 18.8618L3.67893 15.9487L3.58127 15.9164C3.10842 15.7344 2.84081 15.2205 2.97678 14.7211Z" fill="#88CAF5"/>
<path d="M20.9991 4.12305C20.9991 3.97574 20.9704 3.82947 20.9141 3.69336C20.8577 3.55715 20.7742 3.43336 20.67 3.32911C20.5657 3.22488 20.4419 3.14235 20.3057 3.08594C20.2035 3.04364 20.096 3.01665 19.9864 3.00586L19.8759 3C19.7287 3.00006 19.5824 3.02958 19.4463 3.08594C19.3443 3.12826 19.2492 3.18506 19.1641 3.25489L19.083 3.32911L15.0635 7.34766C14.8174 7.59368 14.4947 7.74616 14.1514 7.78028L14.003 7.78711C13.655 7.78711 13.3197 7.66588 13.0528 7.44727L12.9424 7.34766L11.9981 6.4043C11.7337 6.13992 11.3749 5.99122 11.001 5.99122C10.6738 5.99132 10.3583 6.10488 10.1075 6.31055L10.0049 6.4043L9.41406 6.99414L17.0049 14.585L17.5967 13.9942C17.8607 13.7299 18.0088 13.3717 18.0088 12.9981C18.0088 12.6709 17.8951 12.3554 17.6895 12.1045L17.5967 12.001L16.6524 11.0567C16.4064 10.8106 16.2549 10.4879 16.2208 10.1446L16.2129 9.9961L16.2208 9.84766C16.2549 9.50448 16.4064 9.18159 16.6524 8.93555L20.67 4.917L20.7442 4.83497C20.814 4.74979 20.8718 4.6549 20.9141 4.55274C20.9705 4.41662 20.999 4.27039 20.9991 4.12305ZM22.9991 4.12305C22.999 4.53288 22.9185 4.93873 22.7618 5.31739C22.6244 5.64893 22.4309 5.95438 22.1905 6.21973L22.085 6.33106L18.42 9.9961L19.0107 10.587L19.127 10.709C19.6934 11.3346 20.0088 12.1502 20.0088 12.9981C20.0088 13.8458 19.6933 14.6607 19.127 15.2862L19.0107 15.4092L18.0665 16.3526C17.7852 16.6338 17.4037 16.792 17.0058 16.792C16.6579 16.792 16.3226 16.6708 16.0557 16.4522L15.9454 16.3526L7.64648 8.05469C7.40047 7.8086 7.24896 7.48584 7.21484 7.14258L7.20703 6.99414L7.21484 6.84571C7.24899 6.50252 7.40051 6.17964 7.64648 5.9336L8.58984 4.98926L8.71289 4.87305C9.3383 4.30683 10.1534 3.99133 11.001 3.99122C11.9052 3.99122 12.7727 4.35009 13.4122 4.98926L14.003 5.58008L17.668 1.91504L17.7793 1.8086C18.0447 1.56813 18.35 1.37464 18.6817 1.23731C19.0603 1.08053 19.4662 1.00006 19.8759 1L20.0303 1.00391C20.3877 1.02154 20.74 1.1001 21.0713 1.23731C21.4502 1.39424 21.795 1.62507 22.085 1.91504C22.3748 2.20493 22.6049 2.54905 22.7618 2.92774C22.9187 3.30658 22.9991 3.71301 22.9991 4.12305Z" fill="#88CAF5"/>
<path d="M8.16798 7.44596C8.474 6.98624 9.09399 6.86165 9.55372 7.16764C10.0134 7.47365 10.1379 8.09366 9.83204 8.55338C8.84442 10.037 7.73205 11.0187 6.48536 11.6882C5.50419 12.215 4.46814 12.5312 3.40919 12.7653L10.1572 20.9538C11.1068 20.2813 12.3326 19.1286 13.332 17.9186C13.8473 17.2948 14.282 16.6819 14.582 16.1393C14.8981 15.5676 15 15.1883 15 14.9997C15 14.4474 15.4477 13.9997 16 13.9997C16.5522 13.9997 17 14.4474 17 14.9997C17 15.707 16.6941 16.4521 16.332 17.1071C15.9538 17.7911 15.4393 18.5077 14.874 19.1921C13.8896 20.3839 12.6854 21.5551 11.6279 22.3581L11.1855 22.6784L11.0771 22.7428C10.6913 22.9411 10.2507 23.0088 9.82325 22.9352C9.44931 22.8708 9.10226 22.7017 8.82227 22.4489L8.70704 22.3356L8.66309 22.2858L1.34278 13.403L1.33985 13.3981C1.17443 13.1951 1.06456 12.9524 1.02149 12.694C0.978501 12.4359 1.00331 12.171 1.09376 11.9255L1.17384 11.7468C1.26453 11.5738 1.38767 11.4191 1.53809 11.2927L1.6963 11.1774C1.80595 11.1073 1.92391 11.0511 2.04786 11.0114L2.23731 10.9635C3.50867 10.7259 4.58261 10.4391 5.53907 9.92546C6.47932 9.42048 7.35182 8.67199 8.16798 7.44596Z" fill="#88CAF5"/>
</svg>
