<svg width="11" height="11" viewBox="0 0 11 11" fill="none" xmlns="http://www.w3.org/2000/svg">
<path d="M9.00021 9.00395V7.00295L8.98951 6.67485C8.93971 5.91115 8.71501 5.16745 8.33131 4.50196C7.89271 3.74151 7.26131 3.11008 6.50121 2.6709C5.74111 2.23179 4.87901 2.00018 4.00121 2C3.12321 1.99986 2.26051 2.23095 1.50022 2.66993C1.02193 2.94605 0.410153 2.782 0.134013 2.30372C-0.141977 1.82545 0.0219933 1.21361 0.500223 0.9375C1.56461 0.32301 2.77221 -0.000169933 4.00121 6.70332e-08C5.23031 0.000200067 6.43791 0.32365 7.50221 0.93848C8.56641 1.55336 9.44961 2.43824 10.0637 3.50293C10.6776 4.56753 11.0009 5.77495 11.0002 7.00395V9.00395C11.0002 9.55615 10.5525 10.004 10.0002 10.004C9.44791 10.004 9.00021 9.55615 9.00021 9.00395Z" fill="#19191F"/>
</svg>
