<svg width="16" height="16" viewBox="0 0 16 16" fill="none" xmlns="http://www.w3.org/2000/svg">
<path d="M1.96973 13.3599L1.96973 2.63988C1.96973 2.1068 2.18165 1.5957 2.5586 1.21875C2.93555 0.841804 3.44664 0.629883 3.97973 0.629883L10.0097 0.629883L10.0758 0.633152C10.2292 0.648355 10.3735 0.716199 10.4834 0.826173L13.8334 4.17617C13.9591 4.30182 14.0297 4.47219 14.0297 4.64988L14.0297 13.3599C14.0297 13.893 13.8178 14.4041 13.4409 14.781C13.0639 15.158 12.5528 15.3699 12.0197 15.3699L3.97973 15.3699C3.44664 15.3699 2.93555 15.158 2.5586 14.781C2.18165 14.4041 1.96973 13.8929 1.96973 13.3599ZM3.30973 13.3599C3.30973 13.5376 3.38036 13.7079 3.50602 13.8336C3.63167 13.9593 3.80203 14.0299 3.97973 14.0299L12.0197 14.0299C12.1974 14.0299 12.3678 13.9593 12.4934 13.8336C12.6191 13.7079 12.6897 13.5376 12.6897 13.3599L12.6897 4.9273L9.73228 1.96988L3.97973 1.96988C3.80203 1.96988 3.63167 2.04052 3.50602 2.16617C3.38036 2.29182 3.30973 2.46219 3.30973 2.63988L3.30973 13.3599Z" fill="#565D6D"/>
<path d="M8.64941 3.9999V1.3199C8.64941 0.949875 8.94937 0.649902 9.31941 0.649902C9.68946 0.649902 9.98941 0.949875 9.98941 1.3199V3.9999C9.98941 4.1776 10.06 4.34796 10.1857 4.47361C10.3113 4.59926 10.4817 4.6699 10.6594 4.6699H13.3394C13.7095 4.6699 14.0094 4.96987 14.0094 5.3399C14.0094 5.70993 13.7095 6.0099 13.3394 6.0099H10.6594C10.1264 6.0099 9.61522 5.79798 9.23828 5.42103C8.86133 5.04408 8.64941 4.53299 8.64941 3.9999Z" fill="#565D6D"/>
<path d="M6.67016 5.32983C7.0402 5.32983 7.34016 5.62981 7.34016 5.99983C7.34016 6.36986 7.0402 6.66983 6.67016 6.66983H5.33016C4.96013 6.66983 4.66016 6.36986 4.66016 5.99983C4.66016 5.62981 4.96013 5.32983 5.33016 5.32983L6.67016 5.32983Z" fill="#565D6D"/>
<path d="M10.6794 8C11.0495 8 11.3494 8.29996 11.3494 8.67C11.3494 9.04004 11.0495 9.34 10.6794 9.34L5.31941 9.34C4.94939 9.34 4.64941 9.04004 4.64941 8.67C4.64941 8.29996 4.94939 8 5.31941 8L10.6794 8Z" fill="#565D6D"/>
<path d="M10.6794 10.6599C11.0495 10.6599 11.3494 10.9599 11.3494 11.3299C11.3494 11.7 11.0495 11.9999 10.6794 11.9999L5.31941 11.9999C4.94939 11.9999 4.64941 11.7 4.64941 11.3299C4.64941 10.9599 4.94939 10.6599 5.31941 10.6599L10.6794 10.6599Z" fill="#565D6D"/>
</svg>
