<svg width="16" height="16" viewBox="0 0 16 16" fill="none" xmlns="http://www.w3.org/2000/svg">
<path d="M14.0196 6.64989C14.0196 6.27987 13.7197 5.97989 13.3496 5.97989L6.64965 5.97989C6.27962 5.97989 5.97965 6.27987 5.97965 6.64989L5.97965 13.3499C5.97965 13.7199 6.27962 14.0199 6.64965 14.0199L13.3496 14.0199C13.7197 14.0199 14.0196 13.7199 14.0196 13.3499L14.0196 6.64989ZM15.3596 13.3499C15.3596 14.46 14.4598 15.3599 13.3496 15.3599L6.64965 15.3599C5.53956 15.3599 4.63965 14.46 4.63965 13.3499L4.63965 6.64989C4.63965 5.5398 5.53956 4.63989 6.64965 4.63989L13.3496 4.63989C14.4598 4.63989 15.3596 5.5398 15.3596 6.64989L15.3596 13.3499Z" fill="#171A1F"/>
<path d="M10.0196 2.64989C10.0196 2.28292 9.71661 1.97989 9.34965 1.97989L2.64965 1.97989C2.28268 1.97989 1.97965 2.28292 1.97965 2.64989L1.97965 9.34989C1.97965 9.71685 2.28268 10.0199 2.64965 10.0199C3.01968 10.0199 3.31965 10.3199 3.31965 10.6899C3.31965 11.0599 3.01968 11.3599 2.64965 11.3599C1.54262 11.3599 0.639648 10.4569 0.639648 9.34989L0.639648 2.64989C0.639648 1.54287 1.54262 0.639893 2.64965 0.639893L9.34965 0.639893C10.4567 0.639893 11.3596 1.54287 11.3596 2.64989C11.3596 3.01992 11.0597 3.31989 10.6896 3.31989C10.3196 3.31989 10.0196 3.01992 10.0196 2.64989Z" fill="#171A1F"/>
</svg>
