<svg width="74" height="74" viewBox="0 0 74 74" fill="none" xmlns="http://www.w3.org/2000/svg">
<path d="M31.2421 0.450639C39.0803 -0.784186 47.0928 0.53668 54.1042 4.19201L55.4903 4.95406L55.7796 5.13802C57.1634 6.13425 57.5953 8.03735 56.7255 9.54619C55.855 11.0549 53.9909 11.6346 52.4355 10.9356L52.1301 10.778L50.9935 10.1572C45.2576 7.16684 38.7026 6.08572 32.2902 7.09574C25.4504 8.17333 19.1855 11.5638 14.5425 16.7004C9.89951 21.8373 7.1572 28.4115 6.77401 35.3249C6.39097 42.2388 8.38979 49.077 12.437 54.6952C16.4841 60.3134 22.3364 64.3753 29.0152 66.2017C35.6939 68.0282 42.7981 67.5102 49.1409 64.7335C55.4843 61.9569 60.6844 57.0874 63.8731 50.9407C66.8623 45.1785 67.9145 38.6185 66.895 32.2307L66.6619 30.9562L66.6128 30.6148C66.4432 28.919 67.5808 27.3364 69.2865 26.9883C70.9935 26.6405 72.6622 27.6527 73.1691 29.281L73.2545 29.6128L73.5371 31.1698C74.783 38.9781 73.4957 46.9952 69.8415 54.0383C65.9441 61.5505 59.5906 67.5021 51.8378 70.8956C44.0857 74.2892 35.4043 74.9212 27.2414 72.6891C19.0782 70.4567 11.9242 65.494 6.97768 58.6272C2.03123 51.7601 -0.411403 43.4039 0.0566657 34.9539C0.524879 26.5037 3.87805 18.469 9.55296 12.1904C15.2278 5.91225 22.8826 1.76772 31.2421 0.450639Z" fill="#171A1F"/>
<path d="M68.5116 7.4949C69.8325 6.41737 71.7801 6.49335 73.0115 7.72483C74.2432 8.95632 74.3192 10.9038 73.2415 12.225L73.0115 12.4812L39.3755 46.1171C38.144 47.3485 36.1965 47.4245 34.8756 46.3472L34.6193 46.1171L24.5284 36.0263L24.2985 35.7703C23.221 34.4491 23.297 32.5016 24.5284 31.2702C25.7599 30.0386 27.7075 29.9626 29.0286 31.0401L29.2848 31.2702L36.9974 38.9826L68.2553 7.72483L68.5116 7.4949Z" fill="#171A1F"/>
</svg>
