<svg width="48" height="48" viewBox="0 0 48 48" fill="none" xmlns="http://www.w3.org/2000/svg">
<rect width="48" height="48" stroke="white"/>
<path d="M21.9518 27.9404L15.4773 34.2845C14.3645 35.3749 12.8857 35.9734 11.3072 35.9734C9.72863 35.9734 8.24984 35.3719 7.13697 34.2845C6.03323 33.2029 5.42235 31.7599 5.41327 30.222V30.1717C5.41932 28.6368 6.03323 27.1937 7.13697 26.1122L15.1477 18.2629V18.1947C15.0117 16.2154 15.9249 13.6374 17.4127 11.7766L17.1859 11.5811L5.15926 23.4454L4.7873 23.8099C3.04847 25.5137 2.08984 27.7834 2.08984 30.2013C2.08984 32.6192 3.04847 34.889 4.7873 36.5927C6.58659 38.3558 8.9484 39.2358 11.3102 39.2358C13.672 39.2358 16.0338 38.3558 17.8331 36.5927L24.3076 30.2487L21.9549 27.9434L21.9518 27.9404Z" fill="#9095A0"/>
<path d="M43.2535 23.8181L30.4224 11.2456C28.6957 9.55371 26.3974 8.61733 23.9509 8.60254H23.9025C22.451 8.60254 21.0024 8.94035 19.7142 9.58335C18.8494 10.013 18.0661 10.573 17.3796 11.2426C17.2617 11.3583 17.1528 11.4768 17.041 11.5953C16.9019 11.7494 16.7657 11.9064 16.6387 12.0635C15.2447 13.8087 14.5552 15.9955 14.7033 18.2208C14.8394 20.2743 15.6922 22.2388 17.1105 23.747C17.1982 23.8418 17.2859 23.9337 17.3796 24.0226L30.2107 36.5951C31.9495 38.2989 34.266 39.2382 36.7336 39.2382C39.2012 39.2382 41.5177 38.2989 43.2565 36.5951C44.9953 34.8913 45.9539 32.6215 45.9539 30.2037C45.9539 27.7858 44.9953 25.516 43.2565 23.8122L43.2535 23.8181ZM40.9007 34.2928C38.6024 36.5447 34.8617 36.5447 32.5604 34.2928L19.7293 21.7203C17.673 19.7053 17.4371 16.4637 19.182 14.1791C19.3755 13.9273 19.5479 13.7258 19.7293 13.5509C19.8987 13.385 20.0922 13.222 20.3341 13.0413C21.3563 12.2798 22.6203 11.8619 23.8995 11.8619C23.9146 11.8619 23.9298 11.8619 23.9479 11.8619C25.5083 11.8738 26.9719 12.4724 28.0697 13.548L40.9007 26.1205C43.199 28.3725 43.199 32.0378 40.9007 34.2928Z" fill="#9095A0"/>
</svg>
