<svg width="24" height="24" viewBox="0 0 24 24" fill="none" xmlns="http://www.w3.org/2000/svg">
<path d="M8.91608 0.992079C9.44926 0.980966 9.97997 1.07661 10.4756 1.27333C10.9712 1.47005 11.4224 1.76394 11.8028 2.13759C12.1832 2.51123 12.4849 2.95713 12.6905 3.44911C12.8957 3.94027 13.0012 4.46762 13.0001 4.99989L13.0001 18.0008C12.9993 18.6842 12.8582 19.3603 12.586 19.9872C12.3138 20.614 11.9159 21.1783 11.417 21.6454C10.9182 22.1124 10.329 22.4726 9.68561 22.703C9.04218 22.9334 8.35785 23.0295 7.67585 22.9852C6.99394 22.9409 6.32797 22.7577 5.71979 22.4461C5.11165 22.1346 4.57402 21.7012 4.13971 21.1737C3.70535 20.646 3.38334 20.0346 3.1944 19.3778C3.06527 18.9288 3.00143 18.4649 3.00104 17.9999C2.52491 17.643 2.11431 17.2037 1.79108 16.7C1.35109 16.0145 1.08517 15.2315 1.01667 14.4198C0.948204 13.6082 1.07972 12.7923 1.3985 12.0428C1.61522 11.5333 1.91538 11.0661 2.28327 10.6571C2.11897 10.1898 2.02323 9.69981 2.00299 9.20204C1.97221 8.44406 2.1148 7.68897 2.41901 6.99403C2.72325 6.29908 3.18104 5.68189 3.75885 5.19032C4.14545 4.86144 4.57952 4.59571 5.04401 4.39833C5.08451 4.12808 5.15291 3.86198 5.24811 3.60439C5.43297 3.10425 5.71567 2.64592 6.08014 2.25673C6.4447 1.86749 6.8841 1.55499 7.37116 1.33778C7.85796 1.12075 8.38321 1.00325 8.91608 0.992079ZM8.95807 2.9911C8.69156 2.99668 8.42907 3.05637 8.18561 3.16493C7.94208 3.27354 7.72238 3.4293 7.5401 3.62392C7.35785 3.81851 7.21652 4.04767 7.12409 4.29774C7.03169 4.54775 6.99017 4.81371 7.00202 5.07997C7.02312 5.55254 6.71015 5.97582 6.25202 6.09364C5.81117 6.207 5.40146 6.41881 5.05475 6.71376C4.70814 7.00866 4.43357 7.3789 4.25104 7.79579C4.0685 8.21277 3.98257 8.66617 4.00104 9.12099C4.01955 9.57567 4.1418 10.0201 4.35749 10.4208C4.585 10.8434 4.47994 11.368 4.10749 11.6708C3.72816 11.9789 3.42966 12.3753 3.23835 12.825C3.04703 13.2748 2.96873 13.7648 3.00983 14.2518C3.05094 14.7388 3.21069 15.2086 3.47467 15.62C3.73865 16.0312 4.09892 16.372 4.52448 16.6122C4.879 16.8123 5.07666 17.2074 5.02448 17.6112C4.97194 18.0178 5.0039 18.431 5.11725 18.825C5.23061 19.219 5.42312 19.5857 5.68366 19.9022C5.94427 20.2188 6.26696 20.4789 6.6319 20.6659C6.99686 20.8528 7.39653 20.9626 7.80573 20.9891C8.21477 21.0156 8.62488 20.9583 9.01081 20.8202C9.39684 20.6819 9.75054 20.4656 10.0499 20.1854C10.3492 19.9051 10.5887 19.5664 10.752 19.1903C10.9151 18.8146 10.9995 18.4094 11.0001 17.9999L11.0001 4.99696L10.9903 4.79774C10.971 4.59962 10.9227 4.40498 10.8458 4.2206C10.743 3.97457 10.5916 3.75119 10.4014 3.56435C10.2112 3.37749 9.98521 3.23009 9.73737 3.13173C9.48964 3.03348 9.22452 2.98555 8.95807 2.9911Z" fill="#059669"/>
<path d="M15.083 0.992072C15.6161 1.00318 16.1419 1.12065 16.6289 1.33778C17.1159 1.55498 17.5553 1.86749 17.9199 2.25672C18.2844 2.6459 18.5671 3.10425 18.7519 3.60438C18.8471 3.86194 18.9146 4.12811 18.9551 4.39832C19.4198 4.59573 19.8544 4.86127 20.2412 5.19032C20.819 5.68187 21.2768 6.29911 21.581 6.99403C21.8852 7.68895 22.0278 8.44407 21.997 9.20203C21.9768 9.6999 21.8802 10.1897 21.7158 10.6571C22.0839 11.0662 22.3848 11.5332 22.6015 12.0428C22.9203 12.7923 23.0518 13.6082 22.9834 14.4198C22.9149 15.2315 22.6489 16.0145 22.209 16.7C21.8855 17.2041 21.4746 17.6439 20.998 18.0008C20.9975 18.4656 20.9337 18.9291 20.8047 19.3778C20.6157 20.0346 20.2947 20.646 19.8603 21.1737C19.426 21.7013 18.8875 22.1346 18.2793 22.4461C17.6713 22.7575 17.0058 22.9409 16.3242 22.9852C15.6422 23.0295 14.9579 22.9334 14.3144 22.703C13.671 22.4726 13.0819 22.1124 12.583 21.6454C12.0841 21.1783 11.6863 20.614 11.414 19.9872C11.1418 19.3603 11.0007 18.6842 11 18.0008L11 4.99989C10.9988 4.46761 11.1044 3.94027 11.3095 3.4491C11.5151 2.95715 11.8169 2.51121 12.1972 2.13758C12.5777 1.76394 13.0288 1.47003 13.5244 1.27332C14.02 1.07664 14.5499 0.981008 15.083 0.992072ZM15.042 2.9911C14.7756 2.98554 14.5104 3.03351 14.2627 3.13172C14.0149 3.23008 13.7888 3.37751 13.5986 3.56434C13.4084 3.75119 13.2571 3.97455 13.1543 4.22059C13.0516 4.4665 12.9992 4.73048 13 4.99696L13 17.9989L13.0039 18.1522C13.0226 18.5096 13.1052 18.8612 13.248 19.1903C13.4113 19.5662 13.65 19.9052 13.9492 20.1854C14.2485 20.4656 14.6023 20.6819 14.9883 20.8202C15.3743 20.9584 15.7851 21.0157 16.1943 20.9891C16.6035 20.9625 17.0032 20.8528 17.3681 20.6659C17.733 20.4789 18.0558 20.2187 18.3164 19.9022C18.5769 19.5857 18.7694 19.219 18.8828 18.825C18.9961 18.431 19.0281 18.0178 18.9756 17.6112C18.9234 17.2074 19.121 16.8123 19.4756 16.6122C19.9011 16.3719 20.2614 16.0312 20.5254 15.62C20.7894 15.2086 20.9491 14.7388 20.9902 14.2518C21.0313 13.7648 20.953 13.2748 20.7617 12.825C20.5704 12.3753 20.2719 11.9789 19.8926 11.6707C19.52 11.368 19.415 10.8434 19.6426 10.4207C19.8582 10.0201 19.9795 9.57562 19.998 9.12098C20.0165 8.66617 19.9315 8.21277 19.749 7.79578C19.5665 7.37883 19.291 7.00869 18.9443 6.71375C18.6411 6.4559 18.2902 6.26105 17.9121 6.14051L17.748 6.09364C17.2899 5.97583 16.9769 5.55255 16.998 5.07996C17.0099 4.8137 16.9684 4.54774 16.876 4.29774C16.7835 4.04768 16.6422 3.8185 16.4599 3.62391C16.2777 3.4293 16.0579 3.27353 15.8144 3.16492C15.571 3.05636 15.3085 2.99669 15.042 2.9911Z" fill="#059669"/>
<path d="M12.0003 8C12.5313 8 12.9693 8.4151 12.9983 8.94531L13.0228 9.20312C13.0999 9.80099 13.3302 10.3709 13.6937 10.8555C14.057 11.3398 14.539 11.7205 15.0911 11.9619L15.3323 12.0566L15.4271 12.0957C15.8856 12.3114 16.1154 12.8437 15.9437 13.332C15.7718 13.8203 15.2594 14.0915 14.7669 13.9727L14.6683 13.9434L14.4778 13.8721C13.5314 13.4993 12.7059 12.8706 12.094 12.0547C12.062 12.0119 12.031 11.9684 12.0003 11.9248C11.9695 11.9684 11.9386 12.0119 11.9065 12.0547C11.2539 12.9249 10.3584 13.5824 9.33233 13.9434C8.81139 14.1266 8.24027 13.8529 8.05694 13.332C7.87368 12.8111 8.14737 12.24 8.66826 12.0566C9.32113 11.827 9.89163 11.4091 10.3069 10.8555C10.7223 10.3017 10.9646 9.6365 11.0022 8.94531L11.012 8.84766C11.0859 8.365 11.5023 8 12.0003 8Z" fill="#059669"/>
<path d="M18.0393 4.12588C18.591 4.14877 19.02 4.61431 18.9973 5.16592L18.9798 5.40713C18.9225 5.96743 18.7475 6.5105 18.4651 6.9999C18.189 7.47817 17.5772 7.64212 17.0989 7.36611C16.6206 7.09005 16.4567 6.47822 16.7327 5.9999C16.8939 5.72046 16.9849 5.40622 16.9983 5.08388L17.0081 4.98135C17.0802 4.47972 17.5221 4.10442 18.0393 4.12588Z" fill="#059669"/>
<path d="M5.96192 4.12585C6.47934 4.1047 6.92152 4.48042 6.99317 4.9823L7.00195 5.08386L7.02637 5.32409C7.0522 5.48257 7.09731 5.63727 7.16016 5.78503L7.26758 6.00085L7.31445 6.09167C7.52174 6.55406 7.34878 7.10755 6.90039 7.36609C6.45167 7.62459 5.88589 7.49637 5.58984 7.08484L5.53418 6.9989L5.41992 6.78601C5.20482 6.35423 5.06932 5.88702 5.02051 5.4071L5.00391 5.16589L5.00488 5.06335C5.03545 4.55749 5.44467 4.14709 5.96192 4.12585Z" fill="#059669"/>
<path d="M3.57612 9.62586C4.05895 9.35791 4.66743 9.53181 4.9355 10.0146C5.20346 10.4974 5.02958 11.1059 4.54683 11.3739C4.39227 11.4597 4.24543 11.5592 4.10835 11.6708L4.02534 11.7323C3.60205 12.0108 3.02801 11.9286 2.70112 11.5272C2.35256 11.0992 2.41687 10.4698 2.84468 10.121L3.01948 9.98426C3.19672 9.85251 3.38289 9.73311 3.57612 9.62586Z" fill="#059669"/>
<path d="M19.0635 10.0147C19.3148 9.56213 19.8654 9.38023 20.331 9.58012L20.4228 9.62602L20.6133 9.73735C20.7388 9.81445 20.8612 9.89653 20.9795 9.98442L21.1543 10.1211L21.2305 10.1895C21.5888 10.5476 21.6246 11.126 21.2978 11.5274C20.9709 11.9287 20.3969 12.0109 19.9736 11.7324L19.8906 11.6709L19.6777 11.5127L19.4521 11.374L19.3652 11.3203C18.9492 11.0308 18.8122 10.4674 19.0635 10.0147Z" fill="#059669"/>
<path d="M3.16138 16.993C3.41569 16.5421 3.96759 16.3643 4.43189 16.5672L4.52369 16.6131L4.69556 16.7029C5.1014 16.8985 5.54714 17 5.99927 16.9998C6.55144 16.9997 6.99902 17.4476 6.99927 17.9998C6.99948 18.552 6.55236 18.9994 6.00025 18.9998C5.24665 19.0002 4.50383 18.8306 3.8274 18.5047L3.54127 18.3553L3.45435 18.3006C3.04045 18.0082 2.90712 17.4439 3.16138 16.993Z" fill="#059669"/>
<path d="M19.5674 16.5667C20.0317 16.3637 20.5835 16.5416 20.8379 16.9925C21.0923 17.4434 20.959 18.0078 20.5449 18.3001L20.458 18.3548C19.7079 18.7778 18.8612 18.9996 18 18.9993C17.4477 18.9991 16.9998 18.5516 17 17.9993C17.0003 17.4472 17.4479 16.9993 18 16.9993C18.5169 16.9996 19.0254 16.8665 19.4756 16.6126L19.5674 16.5667Z" fill="#059669"/>
</svg>
