<svg width="16" height="16" viewBox="0 0 16 16" fill="none" xmlns="http://www.w3.org/2000/svg">
<path d="M14.0299 3.18883C14.0299 2.86563 13.9011 2.5557 13.6727 2.32713C13.4442 2.09866 13.1347 1.97001 12.8116 1.96988C12.4885 1.96984 12.1778 2.0975 11.9492 2.32582L11.9499 2.32648L3.00695 11.2713C2.92925 11.3489 2.87163 11.4445 2.83945 11.5495L2.13674 13.8617L4.45295 13.1597L4.5295 13.1315C4.60433 13.0984 4.67273 13.0516 4.73102 12.9934L13.6727 4.05055L13.7537 3.96091C13.9314 3.74413 14.0299 3.47155 14.0299 3.18883ZM15.3699 3.18883C15.3698 3.82507 15.1329 4.43704 14.7078 4.90637L14.6201 4.99797L5.67714 13.9422C5.44417 14.1745 5.15762 14.3464 4.84291 14.4421L1.92605 15.3267L1.92409 15.3273C1.75049 15.3795 1.56598 15.3833 1.39019 15.3391C1.21435 15.2949 1.05333 15.2042 0.92498 15.0761C0.796588 14.9479 0.70516 14.7868 0.660645 14.6109C0.616214 14.4352 0.619906 14.2507 0.671767 14.077L0.673074 14.0744L1.55769 11.1582L1.55834 11.1562L1.59825 11.0397C1.68475 10.8091 1.81303 10.5965 1.97644 10.4123L2.06084 10.322L11.0018 1.37905L11.094 1.29137C11.5634 0.866507 12.1754 0.629802 12.8116 0.629883C13.4901 0.630008 14.141 0.89984 14.6207 1.37971C15.1004 1.85959 15.37 2.51033 15.3699 3.18883Z" fill="#88CAF5"/>
<path d="M9.51647 2.85629C9.76175 2.61099 10.1497 2.59585 10.4129 2.81049L10.4638 2.85629L13.1438 5.53629L13.1897 5.58732C13.4043 5.85048 13.3891 6.23841 13.1438 6.48371C12.8986 6.72898 12.5106 6.74412 12.2475 6.52951L12.1965 6.48371L9.51647 3.80371L9.47064 3.75267C9.25604 3.48952 9.27111 3.10159 9.51647 2.85629Z" fill="#88CAF5"/>
</svg>
