<svg width="24" height="24" viewBox="0 0 24 24" fill="none" xmlns="http://www.w3.org/2000/svg">
<path d="M19 5.99951C16.6805 5.99951 13.9706 4.66292 12.1104 3.03955C12.0796 3.01325 12.0405 2.99951 12 2.99951C11.9595 2.99951 11.9204 3.01423 11.8896 3.04053L11.8887 3.03955C10.0971 4.60153 7.48931 5.91502 5.21875 5.9956L5 5.99951L5 12.9996L5.00879 13.4117C5.09782 15.4371 5.8465 16.9384 6.98633 18.106C8.07404 19.22 9.55305 20.0641 11.2539 20.7232L11.9961 20.9947L12.0186 21.0015C14.0236 20.3018 15.7728 19.381 17.0137 18.1079C18.229 16.861 19 15.2354 19 12.9996L19 5.99951ZM21 12.9996C21 15.7637 20.021 17.8888 18.4463 19.5044C16.8988 21.0921 14.8204 22.1442 12.6689 22.8941L12.6611 22.897C12.233 23.0421 11.7688 23.0369 11.3438 22.8843C11.3379 22.8823 11.3321 22.8805 11.3262 22.8785C11.3246 22.8779 11.3228 22.8781 11.3213 22.8775V22.8765C9.17204 22.132 7.09956 21.0847 5.55566 19.5035C4.07782 17.9898 3.12517 16.0279 3.01172 13.5113L3 12.9996L3 5.99951C3.00012 5.46924 3.21097 4.96041 3.58594 4.58545C3.96099 4.21052 4.46967 3.99951 5 3.99951L5.32129 3.98779C6.95847 3.86727 9.05353 2.86208 10.582 1.52685L10.5908 1.52002L10.7422 1.40088C11.1082 1.14056 11.5477 0.999512 12 0.999512C12.4523 0.999512 12.8918 1.14056 13.2578 1.40088L13.4092 1.52002L13.418 1.52685L13.7324 1.7915C15.3383 3.08676 17.4277 3.99951 19 3.99951C19.5303 3.99951 20.039 4.21052 20.4141 4.58545C20.789 4.96042 20.9999 5.46924 21 5.99951L21 12.9996Z" fill="#DC2626"/>
</svg>
