<svg width="24" height="24" viewBox="0 0 24 24" fill="none" xmlns="http://www.w3.org/2000/svg">
<path d="M12 1.00195C12.5249 1.00195 13.0401 1.14065 13.4951 1.40234L13.4961 1.40136L20.4961 5.40136L20.5 5.40429L20.667 5.5078C21.0483 5.76266 21.3673 6.10239 21.5977 6.50097C21.8608 6.95634 21.9995 7.47309 22 7.99902L22 16.001C21.9995 16.527 21.8608 17.0437 21.5977 17.499C21.3344 17.9545 20.9556 18.3327 20.5 18.5957L20.4961 18.5987L13.4961 22.5987L13.4951 22.5977C13.0401 22.8593 12.5249 22.9981 12 22.9981C11.4748 22.9981 10.9591 22.8596 10.5039 22.5977V22.5987L3.50391 18.5987L3.5 18.5957C3.04444 18.3327 2.6656 17.9545 2.40234 17.499C2.17201 17.1005 2.03732 16.6549 2.00684 16.1973L2 16.001L2 7.99902L2.00684 7.80175C2.03742 7.34448 2.17219 6.89929 2.40234 6.50097C2.66559 6.04556 3.04448 5.66733 3.5 5.40429L3.50391 5.40136L10.5039 1.40136C10.9591 1.1394 11.4748 1.00195 12 1.00195ZM12 3.00195C11.8245 3.00195 11.652 3.048 11.5 3.13573L11.4961 3.13769L4.49902 7.13476L4.5 7.13573C4.34813 7.22342 4.22155 7.35012 4.13379 7.50195C4.04623 7.65364 4.00018 7.82581 4 8.00097L4 15.999L4.00879 16.1299C4.02601 16.2592 4.06815 16.3844 4.13379 16.4981C4.22077 16.6485 4.34602 16.7738 4.49609 16.8614L11.4961 20.8614L11.5 20.8643L11.6172 20.9219C11.7381 20.972 11.8682 20.9981 12 20.9981C12.1755 20.9981 12.348 20.952 12.5 20.8643L12.5039 20.8614L19.5039 16.8614C19.654 16.7738 19.7792 16.6485 19.8662 16.4981C19.9536 16.3467 19.9996 16.1749 20 16L20 8.00097L19.9912 7.87011C19.974 7.74082 19.9318 7.61563 19.8662 7.50195C19.7785 7.35012 19.6519 7.22342 19.5 7.13573L12.5039 3.13769L12.5 3.13573C12.348 3.048 12.1755 3.00195 12 3.00195Z" fill="#4F46E5"/>
<path d="M11 22L11 12C11 11.4477 11.4477 11 12 11C12.5523 11 13 11.4477 13 12L13 22C13 22.5523 12.5523 23 12 23C11.4477 23 11 22.5523 11 22Z" fill="#4F46E5"/>
<path d="M20.212 6.13264C20.6909 5.85773 21.3022 6.02297 21.5772 6.50178C21.8521 6.98072 21.6869 7.59203 21.2081 7.86702L12.4981 12.867C12.2284 13.0218 11.9044 13.0416 11.6211 12.9256L11.502 12.867L2.79206 7.86702L2.70612 7.81135C2.29445 7.51586 2.16519 6.95075 2.42292 6.50178C2.68066 6.05302 3.23369 5.87947 3.69636 6.08577L3.78816 6.13264L12 10.8465L20.212 6.13264Z" fill="#4F46E5"/>
<path d="M6.63215 3.77252C6.88936 3.32328 7.44256 3.14956 7.90559 3.35553L7.99738 3.40143L16.9974 8.55182L17.0834 8.6065C17.4956 8.90133 17.6255 9.46669 17.3685 9.91607C17.1114 10.3654 16.5582 10.5399 16.0951 10.334L16.0033 10.2871L7.00324 5.13775L6.91731 5.08209C6.50523 4.78716 6.37504 4.22184 6.63215 3.77252Z" fill="#4F46E5"/>
</svg>
